var fontJSON=
{"glyphs":{"0":{"ha":619,"x_min":0,"x_max":0,"o":"m 368 781 b 172 -89 18 781 -212 -89 b 368 781 560 -89 764 781 z m 178 -15 b 407 703 21 19 219 731 b 178 -15 568 678 335 -49 z "},"1":{"ha":299,"x_min":0,"x_max":0,"o":"m 58 643 b 46 600 56 635 46 600 l 125 600 l -69 -82 l 81 -82 l 333 779 l 215 779 b 58 643 215 779 146 643 z "},"2":{"ha":599,"x_min":0,"x_max":0,"o":"m 558 533 b 331 793 585 660 532 793 b 78 572 169 793 83 678 b 228 469 74 496 144 440 b 336 715 186 565 235 715 b 411 613 393 715 414 665 b -92 -15 396 332 -74 104 b -75 -74 -97 -49 -87 -65 b 18 -64 -60 -68 -11 -64 b 297 -103 99 -67 215 -110 b 460 101 453 -89 489 61 b 289 39 414 60 349 42 b 61 50 204 36 101 56 b 558 533 192 158 506 268 z "},"3":{"ha":594,"x_min":0,"x_max":0,"o":"m 307 796 b 75 576 151 793 72 675 b 215 481 76 500 135 451 b 315 721 174 572 217 718 b 389 622 369 722 390 675 b 213 397 386 524 332 432 b 208 365 213 397 211 381 b 326 176 281 342 324 278 b 160 -33 328 103 272 -31 b 65 61 108 -35 68 -4 b 146 250 64 119 96 197 b -68 94 67 325 -71 222 b 178 -121 -64 -67 76 -121 b 475 164 360 -121 479 -8 b 357 358 474 263 400 339 b 535 604 440 397 538 472 b 307 796 532 707 471 800 z "},"4":{"ha":621,"x_min":0,"x_max":0,"o":"m 572 718 l 422 718 l 282 261 l 76 261 b 354 664 161 329 325 490 b 256 817 372 775 288 817 b -39 260 256 603 75 328 l -21 193 l 261 193 l 178 -82 l 325 -82 l 410 193 l 489 193 l 511 261 l 431 261 l 572 718 z "},"5":{"ha":661,"x_min":0,"x_max":0,"o":"m 490 594 b 608 772 638 607 647 739 b 160 758 475 694 243 736 l 61 421 l 108 371 b 222 411 131 396 183 411 b 372 228 308 411 372 356 b 164 -58 372 151 319 -58 b 75 42 121 -58 75 -25 b 161 232 75 101 108 181 b -50 78 82 311 -50 210 b 171 -125 -50 -86 82 -125 b 525 211 369 -125 525 22 b 278 474 525 411 396 468 b 151 450 233 475 188 465 l 213 644 b 490 594 286 618 397 586 z "},"6":{"ha":583,"x_min":0,"x_max":0,"o":"m 325 418 b 169 364 264 418 207 397 b 386 710 188 438 276 710 b 396 560 439 710 432 611 b 532 632 431 528 521 547 b 374 776 542 708 488 776 b -28 188 156 776 -28 447 b 210 -107 -28 1 68 -107 b 508 215 372 -107 508 51 b 325 418 508 375 401 418 z m 204 -37 b 288 349 76 -37 113 349 b 204 -37 424 349 360 -37 z "},"7":{"ha":507,"x_min":0,"x_max":0,"o":"m 543 685 b 506 763 550 707 525 758 b 131 774 451 722 225 774 b 25 624 26 774 -1 668 b 374 633 74 668 251 629 b 26 29 224 488 26 157 b 175 -92 26 -67 72 -92 b 543 685 142 226 497 629 z "},"8":{"ha":551,"x_min":0,"x_max":0,"o":"m 482 638 b 325 793 482 724 421 785 b 94 594 192 806 97 697 b 172 400 92 511 124 451 b -32 151 79 344 -6 286 b 146 -108 -57 25 -1 -86 b 474 157 372 -142 474 36 b 357 406 474 264 415 340 b 482 638 424 457 482 518 z m 222 615 b 317 738 231 707 283 738 b 386 653 357 738 386 699 b 293 476 386 572 347 514 b 222 615 247 507 218 564 z m 321 164 b 165 -19 321 56 261 -36 b 79 138 92 -7 60 42 b 239 329 100 233 164 286 b 321 164 278 283 321 239 z "},"9":{"ha":624,"x_min":0,"x_max":0,"o":"m 207 265 b 361 319 268 265 325 286 b 146 -26 344 246 254 -26 b 136 125 92 -26 100 72 b 0 53 101 156 11 136 b 157 -93 -10 -24 44 -93 b 560 496 376 -93 560 238 b 322 790 560 682 464 790 b 24 468 160 790 24 633 b 207 265 24 310 131 265 z m 326 721 b 244 336 456 721 419 336 b 326 721 108 336 172 721 z "},"\u0000":{"ha":0,"x_min":0,"x_max":0,"o":""},"\u001d":{"ha":0,"x_min":0,"x_max":0,"o":""}," ":{"ha":279,"x_min":0,"x_max":0,"o":""}," ":{"ha":279,"x_min":0,"x_max":0,"o":""},"!":{"ha":217,"x_min":0,"x_max":0,"o":"m 192 31 b 129 115 200 76 176 115 b 38 31 85 115 46 79 b 100 -53 29 -17 53 -53 b 192 31 147 -53 183 -17 z m 261 943 l 114 207 l 200 207 l 461 943 l 261 943 z "},"\"":{"ha":411,"x_min":0,"x_max":0,"o":"m 140 947 b 43 857 92 947 53 910 b 110 769 35 808 58 769 b 113 769 110 769 111 769 b 74 688 99 738 85 704 b 104 672 67 674 93 654 b 201 839 119 697 196 813 b 201 839 201 839 201 839 b 207 857 204 844 206 851 b 140 947 215 906 190 947 z m 328 947 b 231 857 279 947 239 910 b 296 769 221 808 246 769 b 299 769 297 769 299 769 b 261 688 286 738 271 704 b 292 672 253 674 279 654 b 389 839 307 697 383 813 b 389 839 389 839 389 839 b 393 857 390 844 393 851 b 328 947 403 906 376 947 z "},"#":{"ha":626,"x_min":0,"x_max":0,"o":"m 325 275 l 181 275 l 226 440 l 371 440 l 325 275 z m 592 440 l 604 488 l 431 488 l 490 699 l 443 699 l 383 488 l 239 488 l 299 699 l 251 699 l 192 488 l 18 488 l 4 440 l 178 440 l 132 275 l -42 275 l -54 232 l 119 232 l 60 17 l 107 17 l 167 232 l 313 232 l 251 17 l 300 17 l 360 232 l 533 232 l 546 275 l 372 275 l 418 440 l 592 440 z "},"$":{"ha":508,"x_min":0,"x_max":0,"o":"m 369 678 l 401 786 l 371 786 l 340 682 b 132 501 236 690 140 608 b 231 308 124 410 179 356 l 179 132 b 132 290 129 168 122 251 b 121 40 42 326 -36 125 b 149 29 129 35 139 32 l 117 -81 l 146 -81 l 176 24 b 388 243 278 14 396 99 b 293 418 383 308 333 367 l 357 635 b 367 631 360 633 364 632 b 342 482 407 610 374 513 b 468 544 354 447 454 436 b 369 678 475 615 428 663 z m 310 181 b 235 115 306 136 279 115 b 206 119 224 115 214 117 l 254 285 b 310 181 288 253 313 221 z m 271 447 b 240 528 251 475 239 501 b 326 636 246 589 288 629 l 271 447 z "},"%":{"ha":714,"x_min":0,"x_max":0,"o":"m 558 726 l 507 635 b 372 554 471 571 417 556 b 282 724 383 633 358 710 b 179 358 86 761 -8 392 b 364 514 268 343 338 424 b 461 553 407 519 438 535 l 124 -43 l 171 -46 l 608 726 l 558 726 z m 179 394 b 269 690 103 413 182 699 b 299 568 304 686 311 631 b 288 519 289 565 272 536 b 179 394 265 449 224 383 z m 560 321 b 457 -44 364 358 271 -11 b 560 321 639 -76 738 288 z m 457 -8 b 547 286 381 10 460 294 b 457 -8 631 279 550 -31 z "},"&":{"ha":854,"x_min":0,"x_max":0,"o":"m 481 390 b 353 297 424 386 374 353 b 561 299 403 332 483 310 b 397 90 547 238 503 90 b 242 250 304 90 242 131 b 431 433 242 339 329 456 l 444 457 b 518 803 303 581 421 835 b 461 596 571 786 532 631 b 672 719 547 528 672 593 b 474 903 672 822 600 903 b 222 661 364 903 222 832 b 329 475 222 579 271 507 b 58 185 221 486 58 371 b 314 -44 58 42 163 -44 b 590 294 522 -44 583 174 b 774 383 668 286 739 294 b 481 390 731 347 585 397 z "},"'":{"ha":235,"x_min":0,"x_max":0,"o":"m 138 947 b 40 857 89 947 49 910 b 106 769 31 808 56 769 b 108 769 107 769 108 769 b 71 688 96 738 81 704 b 101 672 63 674 89 654 b 199 839 117 697 193 813 b 199 839 199 839 199 839 b 203 857 200 844 203 851 b 138 947 213 906 186 947 z "},"(":{"ha":267,"x_min":0,"x_max":0,"o":"m 413 1063 b 33 522 376 1063 114 904 b 164 -58 -39 176 117 -24 b 179 -58 172 -65 181 -64 b 106 233 135 24 111 125 b 225 800 97 421 142 631 b 417 1056 276 904 342 994 b 413 1063 419 1057 418 1063 z "},")":{"ha":514,"x_min":0,"x_max":0,"o":"m -32 -62 b 346 476 4 -62 267 94 b 217 1057 418 824 264 1022 b 201 1058 208 1064 199 1063 b 275 767 246 975 269 874 b 154 199 283 578 239 369 b -36 -56 104 94 39 6 b -32 -62 -39 -58 -37 -62 z "},"*":{"ha":243,"x_min":0,"x_max":0,"o":"m 210 1156 l 135 1206 l 225 1263 l 213 1282 l 133 1222 l 156 1314 l 125 1314 l 117 1222 l 58 1283 l 35 1257 l 108 1206 l 18 1151 l 33 1128 l 111 1189 l 88 1097 l 118 1097 l 126 1190 l 188 1129 l 210 1156 z "},"+":{"ha":474,"x_min":0,"x_max":0,"o":"m 438 386 l 292 386 l 321 533 l 249 533 l 219 386 l 76 386 l 61 317 l 206 317 l 178 171 l 251 171 l 278 317 l 424 317 z "},",":{"ha":174,"x_min":0,"x_max":0,"o":"m 100 107 b 17 32 58 107 25 75 b 74 -43 10 -11 31 -43 b 76 -43 74 -43 75 -43 b 43 -112 65 -71 53 -99 b 69 -125 36 -124 60 -140 b 151 15 82 -104 147 -7 b 151 15 151 15 151 15 b 156 32 154 21 156 26 b 100 107 164 72 142 107 z "},"-":{"ha":365,"x_min":0,"x_max":0,"o":"m 325 385 l 285 385 l 56 385 l 42 317 l 313 317 z "},"­":{"ha":365,"x_min":0,"x_max":0,"o":"m 325 385 l 285 385 l 56 385 l 42 317 l 313 317 z "},".":{"ha":194,"x_min":0,"x_max":0,"o":"m 179 26 b 121 106 186 69 164 106 b 35 26 78 106 43 72 b 93 -51 26 -17 49 -51 b 179 26 138 -51 171 -17 z "},"/":{"ha":386,"x_min":0,"x_max":0,"o":"m 63 -33 l 431 972 l 376 972 l 8 -33 z "},":":{"ha":378,"x_min":0,"x_max":0,"o":"m 179 26 b 121 106 186 69 164 106 b 35 26 78 106 43 72 b 93 -51 26 -17 49 -51 b 179 26 138 -51 171 -17 z m 257 431 b 199 510 264 474 242 510 b 113 431 156 510 119 476 b 171 353 104 386 126 353 b 257 431 215 353 249 386 z "},";":{"ha":281,"x_min":0,"x_max":0,"o":"m 249 431 b 190 510 257 474 235 510 b 104 431 149 510 113 476 b 163 353 97 386 118 353 b 249 431 208 353 242 386 z m 100 107 b 17 32 58 107 25 75 b 74 -43 10 -11 31 -43 b 76 -43 74 -43 75 -43 b 43 -112 65 -71 53 -99 b 69 -125 36 -124 60 -140 b 151 15 82 -104 147 -7 b 151 15 151 15 151 15 b 156 32 154 21 156 26 b 100 107 164 72 142 107 z "},";":{"ha":281,"x_min":0,"x_max":0,"o":"m 249 431 b 190 510 257 474 235 510 b 104 431 149 510 113 476 b 163 353 97 386 118 353 b 249 431 208 353 242 386 z m 100 107 b 17 32 58 107 25 75 b 74 -43 10 -11 31 -43 b 76 -43 74 -43 75 -43 b 43 -112 65 -71 53 -99 b 69 -125 36 -124 60 -140 b 151 15 82 -104 147 -7 b 151 15 151 15 151 15 b 156 32 154 21 156 26 b 100 107 164 72 142 107 z "},"<":{"ha":551,"x_min":0,"x_max":0,"o":"m 444 217 l 126 350 l 496 508 l 504 553 l 78 371 l 69 325 l 438 172 l 444 217 z "},"=":{"ha":411,"x_min":0,"x_max":0,"o":"m 368 438 l 78 438 l 69 394 l 360 394 z m 353 326 l 61 326 l 53 283 l 343 283 z "},">":{"ha":533,"x_min":0,"x_max":0,"o":"m 103 510 l 422 376 l 51 217 l 44 174 l 43 172 l 469 356 l 478 400 l 111 553 l 103 510 z "},"?":{"ha":507,"x_min":0,"x_max":0,"o":"m 179 29 b 118 113 188 74 164 113 b 28 29 74 113 36 76 b 89 -54 19 -18 42 -54 b 179 29 136 -54 171 -18 z m 328 942 b 39 711 153 942 39 825 b 157 585 39 644 78 585 b 308 844 140 764 239 844 b 419 728 390 844 419 789 b 89 174 419 507 146 436 b 171 174 114 174 171 174 b 582 701 240 401 582 433 b 328 942 582 826 494 942 z "},"@":{"ha":714,"x_min":0,"x_max":0,"o":"m 671 517 b 476 644 644 599 575 644 b 179 501 363 644 256 594 b 71 214 111 421 71 313 b 129 36 71 142 92 81 b 317 -39 172 -14 238 -39 b 488 38 422 -39 486 33 l 468 54 b 317 -12 467 54 410 -12 b 150 54 244 -12 189 10 b 97 214 115 93 97 149 b 476 618 97 383 229 618 b 644 508 564 618 622 581 b 561 182 676 413 636 271 b 560 181 561 181 560 181 b 533 161 556 175 542 161 b 524 281 506 160 506 217 b 583 468 540 336 557 389 l 472 468 b 463 438 469 461 465 449 b 372 489 453 464 429 489 b 292 92 235 489 110 92 b 400 185 336 92 372 136 b 476 92 400 138 417 92 b 547 129 501 92 526 108 b 656 296 593 169 632 228 b 671 517 685 375 690 456 z m 440 368 b 433 339 440 368 436 349 b 344 182 433 339 385 182 b 424 446 297 182 379 446 b 440 368 460 446 440 368 z "},"A":{"ha":681,"x_min":0,"x_max":0,"o":"m 811 942 b 888 1039 865 969 889 1010 b 878 1063 888 1049 882 1056 b 872 1068 875 1064 874 1065 b 833 1081 863 1075 849 1081 b 685 993 793 1083 742 1050 b 114 901 497 985 250 1061 b 157 699 39 811 90 688 b 597 897 243 861 438 883 b 265 464 496 774 381 610 b 133 479 221 471 175 475 b 118 381 100 483 47 381 b 196 379 140 381 168 381 b -74 144 103 271 11 181 b -271 115 -133 117 -222 104 b -112 -122 -329 -40 -222 -115 b 386 369 78 -135 240 106 b 468 364 414 368 442 365 b 515 -262 385 78 361 -207 b 751 -119 642 -308 747 -196 b 614 356 596 -67 578 138 b 656 353 628 354 643 353 b 679 404 700 350 719 400 b 624 413 663 407 644 410 b 811 942 669 632 760 854 z m 488 432 b 425 442 468 435 447 439 b 699 907 518 617 608 793 l 700 907 b 488 432 629 793 549 615 z "},"B":{"ha":693,"x_min":0,"x_max":0,"o":"m 714 701 b 496 1049 749 885 619 1021 b 13 842 301 1092 85 1039 b 153 638 -35 711 57 628 b 386 965 169 781 239 965 b 349 531 654 965 590 600 b 443 897 390 718 417 879 b 325 881 443 936 353 943 b -75 90 249 717 136 217 b -175 61 -107 72 -140 61 b -14 -125 -175 -49 -119 -125 b 143 -33 47 -125 99 -90 b 344 -167 158 -101 224 -167 b 653 194 538 -167 653 14 b 476 472 653 336 564 422 b 714 701 579 501 689 571 z m 482 265 b 196 50 482 113 353 0 b 332 457 256 163 299 314 b 360 456 340 457 350 456 b 367 456 363 456 365 456 b 482 265 422 419 482 358 z "},"C":{"ha":667,"x_min":0,"x_max":0,"o":"m 472 599 b 772 718 542 561 708 564 b 511 1031 814 821 778 1031 b 221 -82 85 1031 -228 71 b 725 279 603 -211 725 279 b 703 289 725 279 714 285 b 447 72 679 231 613 72 b 238 332 251 72 238 217 b 546 931 238 603 396 931 b 472 599 693 931 579 681 z "},"D":{"ha":717,"x_min":0,"x_max":0,"o":"m 318 1063 b -64 790 11 1063 -64 879 b 85 651 -64 703 -4 651 b 324 968 85 651 114 968 b 276 96 747 968 576 96 b 156 121 226 96 188 106 b 372 900 282 408 326 868 b 256 883 372 938 283 944 b -137 106 181 721 69 229 b -236 76 -168 86 -201 76 b -78 -107 -236 -32 -181 -107 b 97 6 -18 -107 69 -60 b 268 -125 114 -49 163 -125 b 318 1063 797 -125 904 1063 z "},"E":{"ha":621,"x_min":0,"x_max":0,"o":"m 511 686 b 750 828 628 625 750 735 b 497 1039 750 942 639 1039 b 239 872 374 1039 288 978 b 317 510 151 682 226 571 b 22 268 215 503 89 450 b 301 -122 -54 63 74 -122 b 688 269 551 -122 656 151 l 665 279 b 418 44 665 279 581 44 b 213 242 303 44 213 113 b 446 467 213 350 319 494 l 456 490 b 553 922 294 642 438 953 b 511 686 619 906 599 729 z "},"F":{"ha":364,"x_min":0,"x_max":0,"o":"m 925 1011 b 160 1049 801 888 378 1049 b -61 908 43 1049 -39 1018 b 38 767 -75 842 -44 767 b 206 890 38 817 68 890 b 318 876 240 890 278 885 b 213 581 290 813 256 701 b 114 585 182 582 149 583 b 114 499 92 586 67 496 b 183 501 136 499 160 500 b -79 90 118 331 33 158 b -179 63 -110 72 -143 63 b -18 -124 -179 -47 -122 -124 b 339 508 178 -124 276 224 b 418 510 367 510 393 510 b 440 567 449 510 468 564 b 351 572 413 568 383 571 b 417 851 379 699 399 806 b 763 796 521 825 639 796 b 925 1011 965 796 954 1011 z "},"G":{"ha":693,"x_min":0,"x_max":0,"o":"m 506 1031 b 33 438 244 1031 47 713 b 524 119 13 14 408 36 b 542 135 531 124 536 129 b 218 -61 492 29 404 -61 b 33 60 81 -61 33 11 b 154 -282 -106 -10 -68 -257 b 676 356 617 -333 615 264 b 640 383 681 372 657 383 b 604 318 624 383 613 342 b 433 203 556 222 499 197 b 540 932 74 232 392 932 b 493 644 650 932 581 729 b 763 724 526 574 700 572 b 506 1031 804 825 769 1031 z "},"H":{"ha":526,"x_min":0,"x_max":0,"o":"m 693 1063 b 350 454 596 1043 443 754 b 239 464 310 457 281 461 b 247 500 242 476 244 488 b 349 901 286 657 318 806 b 390 957 363 910 381 931 b 393 1004 399 982 396 1000 b 313 1021 383 1026 331 1035 b 275 956 300 1011 285 986 b -246 694 138 917 -189 926 b -117 515 -272 585 -187 515 b 242 869 -117 708 107 833 b 92 476 203 761 151 615 b 42 482 65 479 47 481 b 32 399 11 486 -8 396 b 56 399 36 399 44 399 b -165 90 -11 258 -85 139 b -264 61 -196 71 -231 61 b -106 -124 -264 -47 -210 -124 b 218 392 46 -124 144 126 b 331 386 258 390 289 388 b 329 382 329 385 329 383 b 365 -221 251 106 235 -162 b 603 -96 483 -275 593 -172 b 472 383 446 -31 428 171 b 513 385 492 383 506 383 b 522 439 536 389 540 438 b 488 443 517 440 504 442 b 772 982 551 686 683 928 b 693 1063 778 1028 751 1076 z "},"I":{"ha":397,"x_min":0,"x_max":0,"o":"m 564 960 b 565 1013 571 972 575 996 b 515 1039 558 1029 536 1039 b 485 1029 508 1039 492 1036 b 446 963 472 1019 457 994 b -78 701 308 924 -21 935 b 51 521 -104 590 -19 521 b 414 876 51 714 276 840 b 3 92 324 633 175 196 b -97 63 -28 74 -62 63 b 63 -124 -97 -46 -42 -124 b 390 404 217 -124 317 133 b 418 504 400 436 410 469 b 521 910 457 663 490 813 b 564 960 536 922 554 939 z "},"J":{"ha":553,"x_min":0,"x_max":0,"o":"m 724 960 b 726 1011 728 968 735 994 b 676 1036 718 1028 697 1036 b 646 1026 664 1036 651 1031 b 608 963 633 1018 618 993 b 92 703 472 924 147 933 b 219 525 65 594 149 525 b 575 876 219 717 440 840 b 171 139 488 636 343 238 b -157 106 28 57 -92 88 b 28 -167 -217 -79 -97 -167 b 682 910 476 -167 651 814 b 724 960 693 921 714 939 z "},"K":{"ha":763,"x_min":0,"x_max":0,"o":"m 978 917 b 844 1043 981 975 929 1043 b 417 492 828 771 599 564 b 521 901 456 651 490 803 b 561 957 532 913 551 935 b 567 1006 571 979 569 1001 b 483 1022 556 1028 508 1039 b 444 956 471 1013 456 988 b -86 690 306 915 -28 926 b 46 507 -112 578 -26 507 b 411 868 46 703 274 831 b -4 74 321 621 171 178 b -106 44 -35 54 -71 44 b 57 -144 -106 -67 -49 -144 b 389 390 213 -144 314 115 b 424 404 401 396 413 400 b 615 -236 424 306 422 -99 b 933 -74 708 -303 933 -278 b 524 449 690 -74 553 211 b 978 917 733 528 978 714 z "},"L":{"ha":379,"x_min":0,"x_max":0,"o":"m 740 -22 b 588 -68 740 -22 692 -68 b 129 106 467 -68 289 31 b 267 421 183 192 229 304 b 444 1090 567 533 688 1090 b 125 511 272 1090 210 785 b 4 736 -10 538 -31 671 b 90 406 -147 736 -199 451 b -25 169 56 311 17 229 b -51 179 -32 171 -46 176 b -132 192 -81 186 -108 192 b -319 49 -256 192 -324 121 b -157 -87 -315 -35 -251 -87 b 43 3 -72 -87 19 -33 b 532 -274 200 -117 375 -274 b 740 -22 776 -274 767 -49 z m 468 1018 b 303 521 525 1018 494 649 b 468 1018 379 779 425 1018 z m -189 24 b -229 56 -212 24 -228 38 b -176 93 -231 81 -203 92 b -97 76 -142 93 -97 76 b -189 24 -108 63 -140 24 z "},"M":{"ha":981,"x_min":0,"x_max":0,"o":"m 1132 933 b 1063 1006 1132 971 1096 1006 b 650 486 918 1006 732 682 b 578 917 669 622 625 831 b 617 963 592 928 608 943 b 618 1015 622 975 626 999 b 568 1042 611 1032 589 1042 b 536 1032 560 1042 544 1039 b 499 965 524 1022 508 997 b -28 703 360 926 29 936 b 103 522 -54 592 31 522 b 465 879 103 715 328 843 b 54 92 375 635 226 196 b -47 63 22 74 -12 63 b 114 -124 -47 -46 8 -124 b 443 406 268 -124 368 133 b 471 506 451 438 463 471 b 546 817 500 628 525 724 b 504 293 574 632 563 343 b 615 211 490 242 557 176 b 933 844 725 276 753 607 b 886 -237 776 529 638 -162 b 1097 -89 1004 -271 1097 -161 b 1132 933 749 7 1025 814 z "},"N":{"ha":868,"x_min":0,"x_max":0,"o":"m 1000 951 b 919 1017 1000 992 971 1036 b 683 526 842 990 744 774 b 553 871 663 656 601 800 b 563 903 556 882 560 893 b 606 953 578 915 596 932 b 607 1006 613 965 617 989 b 557 1032 600 1022 578 1032 b 526 1021 550 1032 533 1029 b 488 956 514 1013 499 988 b -33 694 350 917 22 928 b 94 515 -61 585 24 515 b 456 869 94 708 319 833 b 46 89 365 628 218 192 b -53 58 15 69 -19 58 b 107 -126 -53 -49 1 -126 b 433 399 260 -126 360 129 b 454 474 440 424 447 447 b 510 703 474 542 493 629 b 522 757 514 721 518 739 b 558 176 596 556 606 211 b 628 135 563 147 593 129 b 760 -206 625 -39 661 -176 b 967 -62 875 -240 967 -133 b 1000 951 625 32 896 838 z "},"O":{"ha":671,"x_min":0,"x_max":0,"o":"m 444 1017 b 42 736 182 1063 76 839 b 25 668 33 713 28 690 b -40 581 1 653 -22 626 b 144 -112 -154 303 -111 -57 b 444 1017 664 -224 947 929 z m 572 642 b 272 -10 564 485 465 -10 b 126 411 131 -10 72 176 b 272 433 168 393 218 399 b 206 668 197 501 197 596 b 454 938 222 811 333 960 b 572 642 549 921 581 799 z "},"P":{"ha":622,"x_min":0,"x_max":0,"o":"m 460 1047 b -64 768 246 1101 6 1007 b 64 554 -94 665 -42 543 b 388 957 82 725 186 994 b 331 447 656 908 574 446 b 278 465 313 447 294 454 b 376 864 322 664 349 840 b 299 896 376 901 339 913 b -126 90 203 850 122 239 b -225 61 -157 71 -190 61 b -67 -121 -225 -46 -169 -121 b 260 393 101 -121 197 139 b 390 333 285 365 344 335 b 700 610 510 328 654 417 b 460 1047 751 825 622 1008 z "},"Q":{"ha":669,"x_min":0,"x_max":0,"o":"m 907 -26 b 533 35 808 -89 671 -28 b 450 1013 774 344 811 950 b 39 726 182 1060 75 832 b 22 657 31 703 25 681 b -44 568 -3 642 -25 614 b 144 -137 -160 286 -117 -82 b 417 -79 244 -158 336 -133 b 701 -226 503 -142 593 -208 b 907 -26 857 -253 943 -87 z m 125 396 b 275 418 168 378 219 382 b 206 657 197 488 197 585 b 458 932 224 803 336 954 b 579 631 556 914 588 790 b 426 82 574 519 522 240 b 253 124 365 106 306 124 b 126 85 203 124 154 110 b 125 396 99 164 97 274 z m 274 -33 b 146 46 217 -33 174 -4 b 329 -19 211 43 271 17 b 274 -33 311 -29 293 -33 z "},"R":{"ha":689,"x_min":0,"x_max":0,"o":"m 475 369 b 761 629 575 397 718 460 b 540 1047 815 843 703 1007 b 15 768 325 1100 86 1006 b 144 553 -14 665 39 542 b 468 957 163 724 275 957 b 356 453 724 957 675 436 b 457 863 403 656 428 840 b 378 894 457 899 419 911 b -46 89 283 849 203 238 b -146 60 -76 69 -110 60 b 14 -122 -146 -47 -89 -122 b 321 306 163 -122 257 82 b 333 354 326 328 329 340 b 368 354 339 354 353 354 b 576 -219 378 193 419 -108 b 918 -56 669 -286 918 -260 b 475 369 700 -76 531 153 z "},"S":{"ha":525,"x_min":0,"x_max":0,"o":"m 415 690 b 638 799 436 628 614 608 b 446 1039 653 931 558 1018 b 43 724 249 1075 60 924 b 357 154 17 424 374 351 b 225 39 350 76 303 39 b 43 350 47 39 19 261 b 22 -94 -117 414 -256 57 b 496 267 210 -197 513 -40 b 236 771 485 468 224 625 b 460 953 249 917 379 996 b 415 690 531 915 472 744 z "},"T":{"ha":313,"x_min":0,"x_max":0,"o":"m 828 992 b 17 1026 644 818 235 1026 b -193 871 -103 1026 -172 993 b -74 714 -204 803 -157 714 b 97 840 -74 765 -43 840 b 264 814 146 840 203 829 b -108 94 189 603 78 206 b -210 65 -140 75 -174 65 b -47 -124 -210 -46 -153 -124 b 372 786 222 -124 311 525 b 663 743 463 764 561 743 b 828 992 861 743 886 925 z "},"U":{"ha":614,"x_min":0,"x_max":0,"o":"m 871 988 b 794 1065 871 988 861 1065 b 436 406 739 1065 611 903 b 436 406 436 406 436 406 b 435 400 436 404 435 401 b 406 314 424 369 414 340 b 165 72 329 101 246 42 b 338 782 43 119 275 519 b 132 1065 378 949 249 1065 b -228 783 -110 1065 -212 860 b -108 593 -243 707 -208 593 b 181 971 -94 776 111 1013 b -67 128 261 921 -33 393 b 131 -118 -78 42 -47 -118 b 371 82 253 -118 335 11 b 544 -260 371 -210 493 -260 b 683 -126 667 -260 683 -126 b 544 136 683 -126 543 -86 b 871 988 547 449 800 942 z "},"V":{"ha":693,"x_min":0,"x_max":0,"o":"m 594 1022 b 257 60 657 757 393 60 b 208 132 221 60 208 85 b 390 815 208 236 369 675 b 179 1044 410 951 283 1044 b -174 767 -57 1044 -158 842 b -57 579 -189 692 -156 579 b 228 951 -43 760 160 993 b 229 819 250 939 246 889 b 71 288 189 679 110 444 b 42 74 51 214 42 158 b 229 -121 47 -53 133 -121 b 797 808 468 -121 797 518 b 594 1022 797 1035 646 1046 z "},"W":{"ha":1064,"x_min":0,"x_max":0,"o":"m 972 1017 b 639 67 1035 754 772 67 b 758 743 506 67 697 490 b 618 839 783 851 653 888 b 456 292 582 706 496 456 b 236 69 382 99 315 46 b 394 764 135 100 333 508 b 193 1040 433 926 308 1040 b -156 765 -40 1040 -140 839 b -40 579 -171 692 -137 579 b 242 947 -26 758 174 989 b 46 185 321 899 124 478 b 175 -112 24 104 14 -93 b 426 81 304 -128 390 11 b 611 -112 432 -44 517 -112 b 1174 806 847 -112 1158 519 b 972 1017 1183 988 1024 1040 z "},"X":{"ha":721,"x_min":0,"x_max":0,"o":"m 894 872 b 763 1038 924 978 836 1036 b 526 572 776 854 667 703 b 224 1063 488 808 438 1033 b -101 788 -17 1094 -101 835 b 10 635 -101 775 -118 635 b 253 981 10 751 158 997 b 349 425 336 967 321 696 b 11 111 196 307 49 206 b 89 -108 -43 -26 39 -103 b 365 300 106 31 224 168 b 708 -154 403 74 488 -154 b 879 -40 800 -154 879 -82 b 544 460 640 -40 585 217 b 894 872 707 603 860 740 z "},"Y":{"ha":694,"x_min":0,"x_max":0,"o":"m 907 1100 b 574 550 739 1100 644 850 b 557 494 568 532 563 513 b 299 238 474 269 388 211 b 444 836 150 285 371 557 b 224 1146 500 1046 349 1146 b -160 844 -33 1146 -144 926 b -33 640 -176 764 -140 640 b 275 1046 -18 836 201 1090 b 60 339 363 992 94 624 b 271 78 47 249 81 78 b 490 200 374 78 446 138 b 206 -47 428 -28 326 -60 b 28 53 56 -33 33 38 b 150 -276 -56 53 -131 -250 b 667 350 408 -300 593 -62 b 1011 1000 717 629 869 1000 b 907 1100 1011 1036 975 1100 z "},"Z":{"ha":474,"x_min":0,"x_max":0,"o":"m 625 -54 b 179 72 496 -54 331 14 b 661 749 351 254 517 556 b 810 771 711 746 763 750 b 893 946 892 807 932 901 b 664 914 842 1007 721 958 b 185 1049 507 969 319 1049 b 15 836 18 1049 -14 856 b 250 842 54 857 144 861 b 519 772 338 826 428 794 b -3 133 340 567 158 268 b -111 149 -43 143 -79 149 b -246 46 -190 149 -242 96 b -87 -83 -251 -43 -169 -83 b 28 -51 -49 -83 -10 -72 b 574 -276 199 -150 407 -276 b 815 -19 800 -276 843 -71 b 625 -54 815 -19 786 -54 z m 826 918 b 844 886 850 922 863 903 b 768 878 815 861 768 878 b 826 918 768 878 796 914 z m -185 35 b -115 32 -183 60 -131 46 b -185 35 -144 8 -186 10 z "},"[":{"ha":274,"x_min":0,"x_max":0,"o":"m 417 1067 l 290 1067 l 214 1067 l 214 1065 l -1 -47 l 15 -47 l 76 -47 l 204 -47 l 219 31 l 90 31 l 224 721 l 235 779 l 275 990 l 401 990 l 417 1067 z "},"\\":{"ha":278,"x_min":0,"x_max":0,"o":"m 149 1067 l 72 1067 l 71 1067 l 72 1065 l 156 -47 l 232 -47 l 175 721 l 149 1067 z "},"]":{"ha":354,"x_min":0,"x_max":0,"o":"m 433 1067 l 417 1067 l 357 1067 l 228 1067 l 214 990 l 342 990 l 208 299 l 197 240 l 157 31 l 31 31 l 17 -47 l 142 -47 l 219 -47 l 219 -44 l 433 1067 z "},"_":{"ha":694,"x_min":0,"x_max":0,"o":"m 599 -51 l 204 -51 l 29 -51 l 19 -103 l 589 -103 z "},"a":{"ha":583,"x_min":0,"x_max":0,"o":"m 593 229 b 521 138 579 190 551 139 b 507 296 479 136 478 196 b 600 590 532 383 560 464 l 425 590 b 410 543 421 576 415 561 b 268 625 396 585 358 625 b 143 0 53 625 -143 0 b 313 147 213 0 269 69 b 433 0 313 72 338 0 b 619 221 529 0 596 142 l 593 229 z m 225 142 b 349 557 150 142 281 557 b 376 433 407 557 376 433 b 364 388 376 433 368 403 b 225 142 364 388 289 142 z "},"b":{"ha":542,"x_min":0,"x_max":0,"o":"m 408 624 b 292 563 364 624 321 594 l 378 833 l 201 833 l -65 0 l 111 0 l 138 82 b 239 -6 150 33 178 -6 b 408 624 508 -6 674 624 z m 214 121 b 192 253 149 121 192 253 l 236 394 b 343 542 254 442 296 542 b 214 121 424 542 300 121 z "},"c":{"ha":443,"x_min":0,"x_max":0,"o":"m 329 631 b 203 -7 -24 631 -151 -7 b 485 222 415 -7 485 222 b 464 228 485 222 476 224 b 186 188 432 146 263 78 b 328 567 124 278 213 567 b 308 415 397 567 347 438 b 361 383 308 401 333 383 b 472 501 424 383 472 435 b 329 631 472 579 410 631 z "},"d":{"ha":583,"x_min":0,"x_max":0,"o":"m 519 138 b 506 294 478 136 476 196 b 678 835 532 382 638 708 l 503 835 b 411 539 492 799 450 667 b 268 624 397 582 360 624 b 143 0 53 624 -143 0 b 313 147 213 0 269 68 b 432 0 313 72 338 0 b 619 219 528 0 596 140 l 592 229 b 519 138 581 192 551 139 z m 224 140 b 349 556 150 140 281 556 b 378 431 407 556 378 431 b 364 386 372 415 368 400 b 224 140 364 386 289 140 z "},"e":{"ha":451,"x_min":0,"x_max":0,"o":"m 336 624 b 208 -3 -17 624 -144 -3 b 490 224 422 -3 490 224 b 469 229 490 224 482 226 b 193 192 451 175 289 65 b 321 539 126 279 207 539 b 163 310 392 539 303 328 b 218 258 163 288 181 261 b 468 493 356 247 468 369 b 336 624 468 569 399 624 z "},"f":{"ha":319,"x_min":0,"x_max":0,"o":"m 286 404 b 240 407 268 406 254 407 b 363 776 292 561 343 715 l 186 776 b 67 418 176 744 122 583 b 36 419 53 418 54 418 b 43 346 18 396 18 347 b -54 43 -1 213 -42 88 b 103 -242 -115 -161 -35 -285 b 228 358 293 -181 254 219 b 279 358 243 358 260 358 b 286 404 314 358 318 401 z m 128 -144 b 119 35 86 -144 90 -64 b 196 271 129 68 158 160 b 128 -144 213 101 188 -144 z "},"g":{"ha":544,"x_min":0,"x_max":0,"o":"m 426 590 b 411 543 426 590 421 572 b 269 626 397 586 360 626 b 143 0 53 626 -144 0 b 271 81 192 0 235 33 b 239 -18 257 38 246 3 b 47 -140 206 -125 140 -178 b 131 -276 28 -176 33 -257 b 415 -33 235 -297 360 -207 b 614 590 449 75 614 590 l 426 590 z m 225 142 b 350 558 151 142 282 558 b 378 433 408 558 378 433 b 361 379 374 417 368 399 b 225 142 347 336 283 142 z "},"h":{"ha":576,"x_min":0,"x_max":0,"o":"m 586 225 b 517 133 567 167 542 133 b 479 219 471 133 465 171 b 549 450 492 268 549 449 b 443 625 575 544 551 625 b 271 499 375 625 310 560 l 385 860 l 208 860 l -65 0 l 111 0 l 225 357 b 343 510 250 431 311 510 b 361 454 357 510 371 489 b 294 226 356 433 326 335 b 394 -25 275 165 221 -25 b 613 215 499 -25 589 136 l 586 225 z "},"i":{"ha":278,"x_min":0,"x_max":0,"o":"m 121 590 b 29 303 100 528 63 411 b 129 0 -14 171 -28 0 b 315 221 225 0 292 142 l 289 229 b 217 138 278 192 247 139 b 203 296 175 136 174 196 b 296 590 228 383 256 464 l 121 590 z m 338 739 b 242 835 338 792 294 835 b 146 739 189 835 146 792 b 242 643 146 686 189 643 b 338 739 294 643 338 686 z "},"j":{"ha":246,"x_min":0,"x_max":0,"o":"m 344 740 b 249 836 344 793 301 836 b 153 740 196 836 153 793 b 249 644 153 688 196 644 b 344 740 301 644 344 688 z m 306 590 l 117 590 b -69 -21 117 590 -35 88 b -208 -151 -103 -125 -140 -151 b -242 -146 -222 -151 -233 -150 b -144 -279 -279 -204 -243 -279 b 106 -35 -49 -279 51 -210 b 306 590 140 72 306 590 z "},"k":{"ha":528,"x_min":0,"x_max":0,"o":"m 551 222 b 461 143 551 222 535 160 b 303 261 389 126 319 172 b 411 625 556 263 651 626 b 281 529 363 625 307 575 l 386 860 l 208 860 l -65 0 l 111 0 l 242 407 b 350 535 272 479 319 542 b 213 332 404 525 354 333 b 213 332 213 332 213 332 b 336 -6 192 265 164 -6 b 574 215 524 -6 574 215 l 551 222 z "},"l":{"ha":274,"x_min":0,"x_max":0,"o":"m 207 860 b 28 301 188 797 61 408 b 126 0 -14 169 -29 0 b 313 219 222 0 289 140 l 286 228 b 214 136 275 192 244 138 b 200 293 172 135 171 194 b 382 860 226 381 342 733 l 207 860 z "},"m":{"ha":860,"x_min":0,"x_max":0,"o":"m 872 222 b 804 131 854 165 829 131 b 767 218 758 131 753 168 b 836 446 781 265 836 444 b 725 619 858 515 857 619 b 551 483 653 619 593 539 b 433 619 554 542 529 619 b 265 493 364 619 299 551 l 296 585 l 121 585 l -65 0 l 110 0 l 222 354 b 311 493 240 411 278 468 b 357 451 344 518 374 510 b 219 0 351 433 251 107 l 404 0 b 514 353 417 40 497 301 b 631 506 538 425 597 506 b 649 472 644 506 649 494 b 550 86 649 397 550 199 b 675 -25 550 -4 592 -25 b 900 213 803 -25 876 135 l 872 222 z "},"n":{"ha":572,"x_min":0,"x_max":0,"o":"m 586 224 b 517 132 567 167 542 132 b 479 219 471 132 465 171 b 549 449 492 267 549 449 b 440 625 581 543 547 625 b 269 496 371 625 308 553 l 297 585 l 119 585 l -65 0 l 111 0 l 225 357 b 342 510 243 417 311 510 b 360 454 356 510 369 493 b 293 226 356 436 326 335 b 393 -25 275 165 219 -25 b 613 215 497 -25 589 136 l 586 224 z "},"o":{"ha":493,"x_min":0,"x_max":0,"o":"m 388 401 b 363 388 379 403 372 399 b 346 350 354 376 349 364 b 357 310 343 335 347 321 b 364 303 358 308 361 306 b 313 185 350 260 333 219 b 238 122 289 143 264 122 b 199 185 213 122 200 143 b 221 328 199 226 206 274 b 278 472 235 382 254 431 b 351 536 301 515 326 536 b 392 472 376 536 389 515 b 388 401 392 450 390 426 z m 464 300 b 517 331 483 307 500 318 b 579 404 544 357 565 381 b 592 422 585 413 589 418 b 576 435 586 426 581 431 l 571 438 b 489 371 550 407 524 385 b 475 368 483 369 479 368 b 479 447 478 393 479 419 b 328 625 479 561 429 619 b 150 564 258 628 199 607 b 42 399 103 519 65 465 b 0 199 17 332 3 265 b 42 54 -1 142 13 93 b 156 -15 69 15 107 -8 b 390 119 253 -24 331 21 b 464 300 425 176 449 236 z "},"p":{"ha":538,"x_min":0,"x_max":0,"o":"m 404 625 b 290 556 361 625 311 588 l 304 601 l 128 601 l -147 -261 l 31 -261 l 140 88 b 238 -4 147 44 178 -4 b 404 625 510 -4 672 625 z m 218 128 b 189 240 168 128 181 203 l 250 429 b 347 553 271 481 307 553 b 218 128 429 553 304 128 z "},"q":{"ha":533,"x_min":0,"x_max":0,"o":"m 431 590 l 415 539 b 271 625 401 582 364 625 b 144 -1 54 625 -143 -1 b 265 69 190 -1 231 28 l 158 -264 l 336 -264 l 608 590 l 431 590 z m 226 140 b 351 557 153 140 283 557 b 381 433 407 557 383 443 l 356 353 b 226 140 332 285 276 140 z "},"r":{"ha":500,"x_min":0,"x_max":0,"o":"m 435 625 b 274 503 369 625 314 567 l 307 608 l 126 608 l -65 0 l 115 0 l 224 344 b 357 515 263 447 325 515 b 376 393 407 515 407 449 b 543 510 393 367 529 388 b 435 625 556 603 476 625 z "},"s":{"ha":432,"x_min":0,"x_max":0,"o":"m 346 624 b 138 564 313 681 161 679 b 138 504 133 546 133 526 b 26 276 101 419 65 344 b -47 156 -7 260 -36 214 b 71 -43 -68 76 -12 -22 b 401 168 260 -90 383 13 b 346 624 419 326 308 471 z m 208 176 b 92 64 203 117 156 40 b 92 274 24 89 57 236 b 74 282 86 278 79 281 b 151 443 104 340 131 393 b 208 176 175 361 215 264 z "},"t":{"ha":278,"x_min":0,"x_max":0,"o":"m 304 619 l 367 619 l 381 658 l 317 658 b 367 814 336 719 354 775 l 174 763 b 140 658 168 744 156 706 l 69 658 l 54 619 l 129 619 b 28 304 94 510 50 372 b 129 0 -14 171 -29 0 b 317 221 225 0 292 142 l 289 231 b 217 138 278 193 247 139 b 203 296 175 136 174 197 b 304 619 219 351 263 492 z "},"u":{"ha":578,"x_min":0,"x_max":0,"o":"m 586 229 b 514 138 575 192 544 139 b 500 296 472 136 471 196 b 593 590 525 383 553 464 l 417 590 b 324 296 397 528 324 296 b 226 143 308 249 269 143 b 213 296 185 143 183 196 b 306 590 239 383 265 464 l 117 590 b 25 304 96 528 58 411 b 139 0 -18 171 -18 0 b 299 124 200 0 258 60 b 425 0 304 54 338 0 b 613 221 522 0 589 142 l 586 229 z "},"v":{"ha":522,"x_min":0,"x_max":0,"o":"m 93 592 b 11 296 65 499 25 353 b 154 1 -18 183 7 22 b 513 469 292 -18 513 228 b 343 615 513 539 465 638 b 194 138 382 471 283 138 b 193 285 163 138 168 185 b 275 592 233 449 275 592 l 93 592 z "},"w":{"ha":797,"x_min":0,"x_max":0,"o":"m 640 614 b 493 136 679 469 581 136 b 490 285 460 136 465 183 b 574 590 531 447 574 590 l 392 590 b 308 296 364 497 325 350 b 214 136 292 232 246 136 b 201 296 172 136 172 196 b 296 590 228 383 254 464 l 119 590 b 28 304 100 528 63 411 b 128 0 -14 171 -29 0 b 300 178 208 0 268 100 b 453 0 308 94 351 15 b 810 468 589 -18 810 226 b 640 614 810 538 764 636 z "},"x":{"ha":486,"x_min":0,"x_max":0,"o":"m 422 138 b 318 294 375 138 344 218 b 522 544 444 375 522 450 b 426 633 522 599 460 635 b 289 385 426 560 368 464 b 214 590 264 453 222 569 b 25 589 183 590 58 589 b 122 301 39 542 82 419 b 132 272 126 289 128 285 b -35 57 47 194 -24 115 b 50 -61 -50 -18 -14 -56 b 172 174 56 11 103 108 b 335 0 203 78 258 -6 b 522 221 450 10 508 183 l 494 229 b 422 138 494 229 467 138 z "},"y":{"ha":515,"x_min":0,"x_max":0,"o":"m 396 590 b 286 231 396 590 339 401 b 214 139 276 193 247 139 b 200 297 172 139 171 197 b 293 590 225 385 251 464 l 117 590 b 26 304 97 528 60 413 b 124 1 -6 200 -39 1 b 243 90 175 1 219 44 b 210 -19 232 54 215 -1 b 147 -128 192 -75 172 -108 b 36 -144 126 -144 61 -160 b 106 -286 0 -204 35 -272 b 385 -33 222 -310 329 -208 b 583 590 418 74 583 590 l 396 590 z "},"z":{"ha":556,"x_min":0,"x_max":0,"o":"m 636 214 l 592 231 b 461 82 564 153 515 107 b 308 243 439 188 347 225 b 589 465 326 256 544 428 b 533 621 601 476 560 629 b 93 644 468 600 161 592 b 114 457 67 619 56 508 b -62 136 85 374 -21 136 b -12 104 -72 107 -35 88 b 154 436 26 156 142 406 b 465 478 204 424 392 451 b 161 215 383 394 238 275 b 160 199 156 211 153 203 b 283 46 190 183 272 140 b -26 -121 158 51 -26 19 b 157 -256 -26 -193 13 -256 b 468 33 392 -256 476 -76 b 636 214 538 63 600 114 z m 97 -190 b 28 -119 57 -190 28 -160 b 282 -3 28 -42 174 10 b 97 -190 269 -101 194 -190 z "},"{":{"ha":156,"x_min":0,"x_max":0,"o":"m 156 794 b 29 532 119 631 89 553 b 44 224 71 490 65 357 b 140 -87 19 68 8 -87 b 119 218 71 -36 103 89 b 74 519 140 368 131 483 b 225 778 171 515 204 681 b 376 1074 271 990 310 1065 b 156 794 253 1106 201 1013 z "},"|":{"ha":190,"x_min":0,"x_max":0,"o":"m 340 1064 l 265 1064 l 56 -26 l 131 -26 l 275 726 l 340 1064 z "},"}":{"ha":688,"x_min":0,"x_max":0,"o":"m 379 760 b 283 1068 404 915 415 1068 b 304 765 353 1018 322 893 b 351 467 285 617 294 503 b 200 211 254 471 221 308 b 51 -81 156 0 117 -74 b 269 194 174 -114 224 -21 b 394 456 306 357 336 433 b 379 760 353 496 360 628 z "},"~":{"ha":629,"x_min":0,"x_max":0,"o":"m 83 478 b 438 433 147 524 304 433 b 549 539 524 433 549 494 b 210 581 469 483 294 581 b 83 478 110 581 83 506 z "},"¡":{"ha":426,"x_min":0,"x_max":0,"o":"m 285 843 b 346 761 276 799 300 761 b 436 843 390 761 426 796 b 375 925 443 889 421 925 b 285 843 328 925 293 889 z m 217 -50 l 361 669 l 278 669 l 21 -50 l 217 -50 z "},"¢":{"ha":382,"x_min":0,"x_max":0,"o":"m 342 249 b 186 194 324 203 242 164 l 242 424 l 251 475 b 269 407 281 474 283 438 b 344 453 283 389 363 388 b 260 517 333 490 301 514 l 274 594 l 236 594 l 256 593 l 238 517 b 142 93 21 501 -60 122 l 125 22 l 144 22 l 161 92 b 167 92 163 92 165 92 b 356 244 308 92 356 244 b 342 249 356 244 350 246 z m 156 221 b 226 468 118 275 163 436 l 167 207 b 156 221 163 211 160 217 z "},"£":{"ha":422,"x_min":0,"x_max":0,"o":"m 383 722 b 154 365 242 722 171 550 b 153 342 154 357 153 350 l 32 342 l 26 311 l 149 311 b 75 88 131 174 96 122 b -46 22 10 113 -46 75 b 97 -4 -46 -25 35 -54 b 328 -97 126 -29 207 -97 b 449 78 458 -97 508 21 b 324 19 435 47 379 19 b 154 61 242 19 154 61 b 264 311 201 94 244 181 l 374 311 l 381 342 l 268 342 b 269 353 268 346 269 349 b 378 658 283 482 300 658 b 408 531 444 658 428 563 b 513 621 431 514 504 526 b 383 722 515 651 496 722 z "},"¤":{"ha":619,"x_min":0,"x_max":0,"o":"m 335 199 b 243 236 301 199 268 213 b 204 326 221 258 204 294 b 243 418 204 360 222 396 b 335 456 265 440 301 456 b 426 418 368 456 401 442 b 464 326 449 396 464 360 b 460 293 464 315 463 304 b 335 199 442 236 393 199 z m 511 103 l 558 150 l 490 218 b 525 326 511 250 525 288 b 490 436 525 367 511 404 l 558 504 l 511 550 l 443 482 b 335 517 411 504 372 517 b 226 482 297 517 256 503 l 157 550 l 111 504 l 179 435 b 144 326 158 404 144 365 b 179 218 144 288 158 249 l 111 150 l 157 103 l 226 172 b 335 138 257 150 297 138 b 443 172 375 138 414 151 z "},"¥":{"ha":386,"x_min":0,"x_max":0,"o":"m 375 754 b 242 431 375 676 301 532 l 149 699 l 26 699 l 160 314 l 144 226 l 18 226 l 13 194 l 139 194 l 129 135 l 1 135 l -6 103 l 124 103 l 93 -74 l 211 -74 l 243 103 l 351 103 l 357 135 l 249 135 l 260 194 l 369 194 l 375 226 l 265 226 l 282 314 l 281 318 b 401 528 292 338 360 456 b 375 754 482 668 461 754 z "},"¦":{"ha":688,"x_min":0,"x_max":0,"o":"m 399 -283 l 399 251 l 289 251 l 289 -283 z m 399 535 l 399 1071 l 289 1071 l 289 535 z "},"§":{"ha":636,"x_min":0,"x_max":0,"o":"m 524 949 b 265 746 396 971 275 874 b 303 607 260 689 276 644 b 178 424 235 572 183 504 b 378 58 160 231 389 185 b 294 -15 374 8 343 -15 b 178 183 179 -15 163 126 b 164 -101 75 225 -14 -4 b 468 131 283 -167 478 -67 b 433 228 465 165 453 197 b 556 453 506 267 561 346 b 389 776 547 582 381 683 b 532 893 396 869 481 921 b 503 725 578 869 540 760 b 646 794 517 685 631 672 b 524 949 656 879 594 935 z m 465 381 b 382 307 461 331 431 307 b 378 307 381 307 379 307 b 301 454 336 360 297 407 b 350 551 304 497 324 531 b 465 381 407 494 472 450 z "},"©":{"ha":1421,"x_min":0,"x_max":0,"o":"m 550 -107 b 532 -100 543 -107 538 -104 l 506 -74 b 504 -71 506 -72 506 -72 b 492 47 479 -40 475 4 b 585 139 507 88 540 119 b 574 147 581 142 576 144 l 565 156 b 500 118 544 132 524 119 b 492 118 497 118 494 118 b 479 118 488 118 483 118 b 485 113 481 117 483 115 b 492 93 490 107 493 100 b 386 4 486 51 440 4 b 353 10 374 4 363 6 b 325 28 342 14 333 19 l 325 26 l 299 54 b 267 151 279 74 268 107 b 235 94 257 129 246 110 b 149 35 210 58 181 38 b 139 35 146 35 142 35 b 78 58 115 35 94 43 b 51 85 69 68 61 76 b 24 163 33 103 25 131 b 46 186 24 175 33 185 b 79 199 57 188 69 192 b 158 310 104 215 131 251 b 153 317 156 313 154 314 b 150 324 151 319 151 321 b 143 321 147 322 146 322 b 138 321 140 321 139 321 b 79 346 115 321 94 331 l 53 372 b 47 379 51 374 49 376 b 32 453 31 399 26 425 b 117 553 43 496 71 529 b 236 593 154 574 200 583 b 274 601 250 596 263 599 b 293 632 279 615 286 625 b 324 642 304 640 317 642 b 360 628 331 642 349 640 l 388 601 b 393 593 389 599 392 596 b 396 585 394 592 394 589 b 475 668 425 635 450 661 b 493 671 481 671 488 671 b 526 658 506 671 518 667 l 553 631 b 554 629 554 631 554 629 b 568 583 565 618 569 601 b 557 567 567 576 564 571 b 488 464 542 556 514 518 b 526 476 500 471 514 475 b 538 478 531 476 535 478 b 588 464 558 478 575 472 b 597 467 592 465 594 467 l 619 468 b 613 492 615 475 613 483 b 739 597 611 531 644 590 b 756 599 744 597 750 599 b 874 581 792 599 831 589 l 875 581 b 928 569 892 576 910 572 b 932 583 931 578 932 582 b 950 601 933 592 940 600 l 1035 621 b 1040 621 1036 621 1038 621 b 1057 614 1046 621 1051 618 l 1081 590 b 1086 590 1082 590 1085 590 b 1094 589 1089 590 1092 590 b 1107 581 1099 588 1103 585 l 1133 554 b 1146 525 1139 549 1146 539 b 1146 521 1146 524 1146 522 b 1175 510 1157 519 1167 515 b 1185 513 1178 513 1181 513 l 1265 519 b 1283 513 1272 519 1279 517 l 1310 486 b 1311 483 1310 485 1311 485 b 1315 463 1317 478 1318 469 b 1303 425 1311 449 1307 436 l 1303 422 b 1282 356 1294 399 1288 376 b 1292 349 1285 354 1289 351 l 1318 322 b 1321 319 1319 321 1319 321 b 1325 296 1325 313 1326 304 b 1331 290 1326 294 1329 293 l 1357 264 b 1386 200 1369 251 1386 231 b 1353 88 1386 157 1375 119 b 1144 -8 1313 32 1243 -1 b 1000 -18 1099 -12 1049 -15 l 999 -18 b 724 -42 903 -24 804 -29 b 569 -96 635 -54 583 -72 b 551 -107 565 -101 558 -106 l 550 -107 z m 883 182 b 881 178 883 181 882 179 b 889 178 883 178 886 178 l 883 182 z m 1018 190 b 1011 183 1015 189 1013 186 b 1025 183 1015 183 1019 183 b 1024 185 1024 185 1024 185 l 1018 190 z m 1151 201 b 1139 188 1147 197 1143 192 b 1165 189 1147 189 1157 189 b 1161 193 1164 190 1163 192 l 1151 201 z m 213 436 b 172 383 197 422 182 404 b 186 386 178 386 183 386 l 188 386 b 192 386 189 386 190 386 b 213 436 199 401 206 418 z m 876 461 b 878 444 879 456 879 450 b 876 401 875 429 875 415 b 894 460 882 419 888 439 b 876 461 888 460 882 460 z m 382 333 b 401 335 392 333 397 333 b 406 360 411 338 414 360 b 389 360 403 360 397 360 b 518 613 418 472 478 585 b 482 646 521 633 508 654 b 326 360 438 633 369 499 b 276 361 308 360 296 361 b 281 378 278 367 279 371 b 326 561 297 449 313 517 b 344 588 332 565 340 575 b 346 608 349 599 347 607 b 310 614 342 618 318 621 b 292 583 304 608 297 597 b 56 447 229 560 82 553 b 115 371 44 397 82 368 b 278 543 114 458 217 522 b 210 361 260 493 236 425 b 186 363 197 361 189 361 b 182 324 172 363 164 321 b 193 325 185 324 188 325 b 93 179 163 260 129 203 b 49 163 79 169 64 164 b 121 85 49 114 74 81 b 267 328 189 90 233 206 b 318 329 285 328 299 328 b 318 328 318 328 318 328 b 335 58 282 200 275 79 b 442 122 388 38 438 88 b 382 333 371 146 363 236 z m 549 240 b 604 178 550 206 561 175 b 654 211 624 179 640 193 b 704 167 663 189 681 171 b 854 274 790 151 847 203 b 829 475 863 344 813 406 b 735 442 814 500 744 494 b 735 414 732 433 732 425 b 685 308 718 375 701 340 b 651 251 669 300 656 278 b 650 244 650 249 650 247 b 644 243 647 244 646 243 b 638 314 625 240 624 268 b 679 449 649 354 661 390 l 600 443 b 593 421 599 436 596 429 b 529 453 586 439 569 456 b 472 168 431 444 343 157 b 549 240 504 171 529 203 z m 706 313 b 740 388 719 340 732 364 b 767 269 751 351 769 310 b 714 215 764 243 743 207 b 714 310 683 224 699 292 b 706 313 711 311 708 313 z m 565 425 b 578 371 592 428 578 371 b 572 350 578 371 574 357 b 510 235 572 350 539 236 b 565 425 475 232 535 422 z m 1276 328 b 1263 332 1278 333 1265 336 b 1260 325 1263 332 1260 326 b 1231 289 1253 308 1243 290 b 1224 360 1211 286 1211 314 b 1267 496 1235 400 1249 436 l 1186 489 b 1181 467 1185 483 1182 476 b 1115 499 1174 486 1157 501 b 994 297 1054 494 997 381 b 967 268 988 283 978 269 b 961 339 949 267 947 293 b 1010 500 963 347 989 431 b 1011 500 1011 500 1011 500 b 1096 550 1083 506 1096 538 b 1088 567 1096 563 1088 567 b 1028 538 1088 567 1076 542 b 1022 538 1026 538 1024 538 b 1040 597 1032 571 1039 594 l 956 578 b 944 542 956 578 951 563 b 742 574 872 553 797 578 b 654 469 624 564 624 468 b 735 511 654 469 661 506 b 932 503 801 517 875 508 b 881 336 913 436 885 347 b 928 203 863 275 856 197 b 996 268 957 206 981 236 b 1060 214 1001 233 1021 211 b 1136 286 1090 217 1117 249 b 1192 224 1136 251 1147 219 b 1265 300 1225 226 1250 265 b 1304 236 1276 281 1303 264 b 1183 165 1304 175 1251 169 b 660 135 1083 161 817 156 b 524 -57 513 115 481 -4 b 1117 42 572 24 879 22 b 1338 226 1332 58 1338 193 b 1276 328 1338 281 1264 294 z m 1165 417 b 1160 396 1165 417 1161 403 b 1096 281 1160 396 1125 282 b 1153 471 1063 278 1121 468 b 1165 417 1179 474 1165 417 z "},"ª":{"ha":301,"x_min":0,"x_max":0,"o":"m 251 814 b 242 889 229 814 228 842 b 286 1029 254 931 267 969 l 203 1029 b 196 1007 201 1022 199 1015 b 128 1046 189 1026 171 1046 b 68 749 25 1046 -68 749 b 150 818 101 749 129 781 b 201 749 150 782 165 749 b 251 814 235 749 251 793 z m 107 815 b 167 1013 72 815 135 1013 b 181 954 194 1013 181 954 b 174 932 178 947 176 940 b 107 815 174 932 139 815 z "},"«":{"ha":640,"x_min":0,"x_max":0,"o":"m 379 149 b 113 354 369 156 372 154 b 436 538 113 354 413 524 b 428 567 458 551 444 574 b 22 374 418 561 29 376 b 18 349 13 368 8 354 b 363 121 24 344 349 129 b 379 149 374 114 392 138 z m 550 149 b 285 343 538 158 285 343 b 607 538 285 343 583 524 b 599 567 629 551 615 574 b 193 363 589 561 200 365 b 189 338 183 357 179 344 b 533 121 194 333 519 129 b 550 149 544 114 563 138 z "},"®":{"ha":1410,"x_min":0,"x_max":0,"o":"m 550 -107 b 532 -100 543 -107 538 -104 l 506 -74 b 504 -71 506 -72 506 -72 b 492 47 479 -40 475 4 b 585 139 507 88 540 119 b 574 147 581 142 576 144 l 565 156 b 500 118 544 132 524 119 b 492 118 497 118 494 118 b 479 118 488 118 483 118 b 485 113 481 117 483 115 b 492 93 490 107 493 100 b 386 4 486 51 440 4 b 353 10 374 4 363 6 b 325 28 342 14 333 19 l 325 26 l 299 54 b 267 151 279 74 268 107 b 235 94 257 129 246 110 b 149 35 210 58 181 38 b 139 35 146 35 142 35 b 78 58 115 35 94 43 b 51 85 69 68 61 76 b 24 163 33 103 25 131 b 46 186 24 175 33 185 b 79 199 57 188 69 192 b 158 310 104 215 131 251 b 153 317 156 313 154 314 b 150 324 151 319 151 321 b 143 321 147 322 146 322 b 138 321 140 321 139 321 b 79 346 115 321 94 331 l 53 372 b 47 379 51 374 49 376 b 32 453 31 399 26 425 b 117 553 43 496 71 529 b 236 593 154 574 200 583 b 274 601 250 596 263 599 b 293 632 279 615 286 625 b 324 642 304 640 317 642 b 360 628 331 642 349 640 l 388 601 b 393 593 389 599 392 596 b 396 585 394 592 394 589 b 475 668 425 635 450 661 b 493 671 481 671 488 671 b 526 658 506 671 518 667 l 553 631 b 554 629 554 631 554 629 b 568 583 565 618 569 601 b 557 567 567 576 564 571 b 488 464 542 556 514 518 b 526 476 500 471 514 475 b 538 478 531 476 535 478 b 588 464 558 478 575 472 b 597 467 592 465 594 467 l 619 468 b 613 492 615 475 613 483 b 739 597 611 531 644 590 b 756 599 744 597 750 599 b 874 581 792 599 831 589 l 875 581 b 928 569 892 576 910 572 b 932 583 931 578 932 582 b 950 601 933 592 940 600 l 1035 621 b 1040 621 1036 621 1038 621 b 1057 614 1046 621 1051 618 l 1081 590 b 1086 590 1082 590 1085 590 b 1094 589 1089 590 1092 590 b 1107 581 1099 588 1103 585 l 1133 554 b 1146 525 1139 549 1146 539 b 1146 521 1146 524 1146 522 b 1175 510 1157 519 1167 515 b 1185 513 1178 513 1181 513 l 1265 519 b 1283 513 1272 519 1279 517 l 1310 486 b 1311 483 1310 485 1311 485 b 1315 463 1317 478 1318 469 b 1303 425 1311 449 1307 436 l 1303 422 b 1282 356 1294 399 1288 376 b 1292 349 1285 354 1289 351 l 1318 322 b 1321 319 1319 321 1319 321 b 1325 296 1325 313 1326 304 b 1331 290 1326 294 1329 293 l 1357 264 b 1386 200 1369 251 1386 231 b 1353 88 1386 157 1375 119 b 1144 -8 1313 32 1243 -1 b 1000 -18 1099 -12 1049 -15 l 999 -18 b 724 -42 903 -24 804 -29 b 569 -96 635 -54 583 -72 b 551 -107 565 -101 558 -106 l 550 -107 z m 883 182 b 881 178 883 181 882 179 b 889 178 883 178 886 178 l 883 182 z m 1018 190 b 1011 183 1015 189 1013 186 b 1025 183 1015 183 1019 183 b 1024 185 1024 185 1024 185 l 1018 190 z m 1151 201 b 1139 188 1147 197 1143 192 b 1165 189 1147 189 1157 189 b 1161 193 1164 190 1163 192 l 1151 201 z m 213 436 b 172 383 197 422 182 404 b 186 386 178 386 183 386 l 188 386 b 192 386 189 386 190 386 b 213 436 199 401 206 418 z m 876 461 b 878 444 879 456 879 450 b 876 401 875 429 875 415 b 894 460 882 419 888 439 b 876 461 888 460 882 460 z m 382 333 b 401 335 392 333 397 333 b 406 360 411 338 414 360 b 389 360 403 360 397 360 b 518 613 418 472 478 585 b 482 646 521 633 508 654 b 326 360 438 633 369 499 b 276 361 308 360 296 361 b 281 378 278 367 279 371 b 326 561 297 449 313 517 b 344 588 332 565 340 575 b 346 608 349 599 347 607 b 310 614 342 618 318 621 b 292 583 304 608 297 597 b 56 447 229 560 82 553 b 115 371 44 397 82 368 b 278 543 114 458 217 522 b 210 361 260 493 236 425 b 186 363 197 361 189 361 b 182 324 172 363 164 321 b 193 325 185 324 188 325 b 93 179 163 260 129 203 b 49 163 79 169 64 164 b 121 85 49 114 74 81 b 267 328 189 90 233 206 b 318 329 285 328 299 328 b 318 328 318 328 318 328 b 335 58 282 200 275 79 b 442 122 388 38 438 88 b 382 333 371 146 363 236 z m 549 240 b 604 178 550 206 561 175 b 654 211 624 179 640 193 b 704 167 663 189 681 171 b 854 274 790 151 847 203 b 829 475 863 344 813 406 b 735 442 814 500 744 494 b 735 414 732 433 732 425 b 685 308 718 375 701 340 b 651 251 669 300 656 278 b 650 244 650 249 650 247 b 644 243 647 244 646 243 b 638 314 625 240 624 268 b 679 449 649 354 661 390 l 600 443 b 593 421 599 436 596 429 b 529 453 586 439 569 456 b 472 168 431 444 343 157 b 549 240 504 171 529 203 z m 706 313 b 740 388 719 340 732 364 b 767 269 751 351 769 310 b 714 215 764 243 743 207 b 714 310 683 224 699 292 b 706 313 711 311 708 313 z m 565 425 b 578 371 592 428 578 371 b 572 350 578 371 574 357 b 510 235 572 350 539 236 b 565 425 475 232 535 422 z m 1276 328 b 1263 332 1278 333 1265 336 b 1260 325 1263 332 1260 326 b 1231 289 1253 308 1243 290 b 1224 360 1211 286 1211 314 b 1267 496 1235 400 1249 436 l 1186 489 b 1181 467 1185 483 1182 476 b 1115 499 1174 486 1157 501 b 994 297 1054 494 997 381 b 967 268 988 283 978 269 b 961 339 949 267 947 293 b 1010 500 963 347 989 431 b 1011 500 1011 500 1011 500 b 1096 550 1083 506 1096 538 b 1088 567 1096 563 1088 567 b 1028 538 1088 567 1076 542 b 1022 538 1026 538 1024 538 b 1040 597 1032 571 1039 594 l 956 578 b 944 542 956 578 951 563 b 742 574 872 553 797 578 b 654 469 624 564 624 468 b 735 511 654 469 661 506 b 932 503 801 517 875 508 b 881 336 913 436 885 347 b 928 203 863 275 856 197 b 996 268 957 206 981 236 b 1060 214 1001 233 1021 211 b 1136 286 1090 217 1117 249 b 1192 224 1136 251 1147 219 b 1265 300 1225 226 1250 265 b 1304 236 1276 281 1303 264 b 1183 165 1304 175 1251 169 b 660 135 1083 161 817 156 b 524 -57 513 115 481 -4 b 1117 42 572 24 879 22 b 1338 226 1332 58 1338 193 b 1276 328 1338 281 1264 294 z m 1165 417 b 1160 396 1165 417 1161 403 b 1096 281 1160 396 1125 282 b 1153 471 1063 278 1121 468 b 1165 417 1179 474 1165 417 z "},"°":{"ha":457,"x_min":0,"x_max":0,"o":"m 229 660 b 97 789 157 660 97 715 b 229 919 97 863 157 919 b 358 789 300 919 358 861 b 229 660 358 715 301 660 z m 229 601 b 363 657 281 601 325 619 b 418 789 399 693 418 738 b 363 922 418 842 400 886 b 231 978 326 960 282 978 b 96 924 178 978 133 960 b 40 789 60 886 40 842 b 94 656 40 738 58 693 b 229 601 131 619 175 601 z "},"²":{"ha":443,"x_min":0,"x_max":0,"o":"m 394 890 b 275 1026 407 957 379 1026 b 143 911 190 1026 146 965 b 221 857 140 871 178 842 b 278 985 200 907 225 985 b 317 932 307 985 318 960 b 54 604 308 786 64 667 b 63 574 51 586 57 578 b 113 579 72 576 97 579 b 257 558 154 578 215 554 b 342 665 339 565 357 644 b 253 633 318 643 285 633 b 135 639 208 632 156 642 b 394 890 203 694 367 751 z "},"³":{"ha":326,"x_min":0,"x_max":0,"o":"m 200 1026 b 89 921 125 1024 88 968 b 156 874 89 883 118 860 b 204 989 136 918 157 989 b 240 942 231 990 240 967 b 154 833 239 894 213 851 b 153 819 154 833 154 825 b 210 728 188 807 208 776 b 129 626 211 692 183 628 b 85 672 104 626 85 640 b 122 763 83 700 99 738 b 19 688 85 799 18 750 b 138 585 21 611 89 585 b 282 722 225 585 283 639 b 225 815 281 769 244 806 b 310 933 264 833 311 869 b 200 1026 308 983 279 1028 z "},"·":{"ha":211,"x_min":0,"x_max":0,"o":"m 179 493 b 121 572 186 536 164 572 b 35 493 78 572 43 539 b 93 415 26 450 49 415 b 179 493 138 415 171 449 z "},"∙":{"ha":211,"x_min":0,"x_max":0,"o":"m 179 493 b 121 572 186 536 164 572 b 35 493 78 572 43 539 b 93 415 26 450 49 415 b 179 493 138 415 171 449 z "},"¹":{"ha":269,"x_min":0,"x_max":0,"o":"m 104 953 b 97 929 103 949 97 929 l 140 929 l 35 557 l 117 557 l 254 1026 l 190 1026 b 104 953 190 1026 153 953 z "},"»":{"ha":640,"x_min":0,"x_max":0,"o":"m 256 539 b 521 333 265 532 263 533 b 199 150 521 333 221 164 b 206 121 175 136 189 114 b 611 314 215 126 606 311 b 617 339 622 319 626 332 b 272 567 611 343 286 558 b 256 539 261 574 243 549 z m 85 539 b 350 344 97 529 350 344 b 28 150 350 344 50 164 b 35 121 4 136 18 114 b 440 325 44 126 435 322 b 446 350 451 331 456 343 b 101 567 440 353 115 558 b 85 539 90 574 72 549 z "},"¿":{"ha":624,"x_min":0,"x_max":0,"o":"m 421 861 b 482 778 414 815 436 778 b 572 861 526 778 564 813 b 511 942 581 906 558 942 b 421 861 465 942 429 907 z m 275 -46 b 561 183 447 -46 561 69 b 444 308 561 250 522 308 b 293 50 460 129 363 50 b 183 165 213 50 183 106 b 513 717 183 385 456 457 b 431 717 486 717 431 717 b 22 192 361 490 22 458 b 275 -46 22 67 108 -46 z "},"À":{"ha":682,"x_min":0,"x_max":0,"o":"m 811 942 b 888 1039 865 969 889 1010 b 878 1063 888 1049 882 1056 b 872 1068 875 1064 874 1065 b 833 1081 863 1075 849 1081 b 685 993 793 1083 742 1050 b 114 901 497 985 250 1061 b 157 699 39 811 90 688 b 597 897 243 861 438 883 b 265 464 496 774 381 610 b 133 479 221 471 175 475 b 118 381 100 483 47 381 b 196 379 140 381 168 381 b -74 144 103 271 11 181 b -271 115 -133 117 -222 104 b -112 -122 -329 -40 -222 -115 b 386 369 78 -135 240 106 b 468 364 414 368 442 365 b 515 -262 385 78 361 -207 b 751 -119 642 -308 747 -196 b 614 356 596 -67 578 138 b 656 353 628 354 643 353 b 679 404 700 350 719 400 b 624 413 663 407 644 410 b 811 942 669 632 760 854 z m 488 432 b 425 442 468 435 447 439 b 699 907 518 617 608 793 l 700 907 b 488 432 629 793 549 615 z m 765 1149 l 833 1149 l 790 1315 l 675 1315 l 765 1149 z "},"Á":{"ha":678,"x_min":0,"x_max":0,"o":"m 811 942 b 888 1039 865 969 889 1010 b 878 1063 888 1049 882 1056 b 872 1068 875 1064 874 1065 b 833 1081 863 1075 849 1081 b 685 993 793 1083 742 1050 b 114 901 497 985 250 1061 b 157 699 39 811 90 688 b 597 897 243 861 438 883 b 265 464 496 774 381 610 b 133 479 221 471 175 475 b 118 381 100 483 47 381 b 196 379 140 381 168 381 b -74 144 103 271 11 181 b -271 115 -133 117 -222 104 b -112 -122 -329 -40 -222 -115 b 386 369 78 -135 240 106 b 468 364 414 368 442 365 b 515 -262 385 78 361 -207 b 751 -119 642 -308 747 -196 b 614 356 596 -67 578 138 b 656 353 628 354 643 353 b 679 404 700 350 719 400 b 624 413 663 407 644 410 b 811 942 669 632 760 854 z m 488 432 b 425 442 468 435 447 439 b 699 907 518 617 608 793 l 700 907 b 488 432 629 793 549 615 z m 818 1150 l 967 1315 l 842 1315 l 742 1150 z "},"Â":{"ha":682,"x_min":0,"x_max":0,"o":"m 811 942 b 888 1039 865 969 889 1010 b 878 1063 888 1049 882 1056 b 872 1068 875 1064 874 1065 b 833 1081 863 1075 849 1081 b 685 993 793 1083 742 1050 b 114 901 497 985 250 1061 b 157 699 39 811 90 688 b 597 897 243 861 438 883 b 265 464 496 774 381 610 b 133 479 221 471 175 475 b 118 381 100 483 47 381 b 196 379 140 381 168 381 b -74 144 103 271 11 181 b -271 115 -133 117 -222 104 b -112 -122 -329 -40 -222 -115 b 386 369 78 -135 240 106 b 468 364 414 368 442 365 b 515 -262 385 78 361 -207 b 751 -119 642 -308 747 -196 b 614 356 596 -67 578 138 b 656 353 628 354 643 353 b 679 404 700 350 719 400 b 624 413 663 407 644 410 b 811 942 669 632 760 854 z m 488 432 b 425 442 468 435 447 439 b 699 907 518 617 608 793 l 700 907 b 488 432 629 793 549 615 z m 978 1150 l 896 1313 l 894 1313 l 821 1313 l 818 1313 l 679 1150 l 749 1150 l 858 1253 l 919 1150 l 978 1150 z "},"Ã":{"ha":682,"x_min":0,"x_max":0,"o":"m 811 942 b 888 1039 865 969 889 1010 b 878 1063 888 1049 882 1056 b 872 1068 875 1064 874 1065 b 833 1081 863 1075 849 1081 b 685 993 793 1083 742 1050 b 114 901 497 985 250 1061 b 157 699 39 811 90 688 b 597 897 243 861 438 883 b 265 464 496 774 381 610 b 133 479 221 471 175 475 b 118 381 100 483 47 381 b 196 379 140 381 168 381 b -74 144 103 271 11 181 b -271 115 -133 117 -222 104 b -112 -122 -329 -40 -222 -115 b 386 369 78 -135 240 106 b 468 364 414 368 442 365 b 515 -262 385 78 361 -207 b 751 -119 642 -308 747 -196 b 614 356 596 -67 578 138 b 656 353 628 354 643 353 b 679 404 700 350 719 400 b 624 413 663 407 644 410 b 811 942 669 632 760 854 z m 488 432 b 425 442 468 435 447 439 b 699 907 518 617 608 793 l 700 907 b 488 432 629 793 549 615 z m 642 1189 b 932 1151 694 1225 824 1151 b 1022 1238 1001 1151 1022 1201 b 746 1272 957 1193 814 1272 b 642 1189 664 1272 642 1211 z "},"Ä":{"ha":679,"x_min":0,"x_max":0,"o":"m 811 942 b 888 1039 865 969 889 1010 b 878 1063 888 1049 882 1056 b 872 1068 875 1064 874 1065 b 833 1081 863 1075 849 1081 b 685 993 793 1083 742 1050 b 114 901 497 985 250 1061 b 157 699 39 811 90 688 b 597 897 243 861 438 883 b 265 464 496 774 381 610 b 133 479 221 471 175 475 b 118 381 100 483 47 381 b 196 379 140 381 168 381 b -74 144 103 271 11 181 b -271 115 -133 117 -222 104 b -112 -122 -329 -40 -222 -115 b 386 369 78 -135 240 106 b 468 364 414 368 442 365 b 515 -262 385 78 361 -207 b 751 -119 642 -308 747 -196 b 614 356 596 -67 578 138 b 656 353 628 354 643 353 b 679 404 700 350 719 400 b 624 413 663 407 644 410 b 811 942 669 632 760 854 z m 488 432 b 425 442 468 435 447 439 b 699 907 518 617 608 793 l 700 907 b 488 432 629 793 549 615 z m 832 1225 b 758 1299 832 1265 799 1299 b 686 1225 719 1299 686 1265 b 758 1153 686 1185 719 1153 b 832 1225 799 1153 832 1185 z m 1029 1225 b 957 1299 1029 1265 997 1299 b 885 1225 917 1299 885 1265 b 957 1153 885 1185 917 1153 b 1029 1225 997 1153 1029 1185 z "},"Å":{"ha":682,"x_min":0,"x_max":0,"o":"m 811 942 b 888 1039 865 969 889 1010 b 878 1063 888 1049 882 1056 b 872 1068 875 1064 874 1065 b 833 1081 863 1075 849 1081 b 685 993 793 1083 742 1050 b 114 901 497 985 250 1061 b 157 699 39 811 90 688 b 597 897 243 861 438 883 b 265 464 496 774 381 610 b 133 479 221 471 175 475 b 118 381 100 483 47 381 b 196 379 140 381 168 381 b -74 144 103 271 11 181 b -271 115 -133 117 -222 104 b -112 -122 -329 -40 -222 -115 b 386 369 78 -135 240 106 b 468 364 414 368 442 365 b 515 -262 385 78 361 -207 b 751 -119 642 -308 747 -196 b 614 356 596 -67 578 138 b 656 353 628 354 643 353 b 679 404 700 350 719 400 b 624 413 663 407 644 410 b 811 942 669 632 760 854 z m 488 432 b 425 442 468 435 447 439 b 699 907 518 617 608 793 l 700 907 b 488 432 629 793 549 615 z m 854 1139 b 947 1232 906 1139 947 1181 b 854 1325 947 1283 906 1325 b 761 1232 803 1325 761 1283 b 854 1139 761 1181 803 1139 z m 854 1289 b 911 1232 886 1289 911 1263 b 854 1175 911 1200 886 1175 b 797 1232 822 1175 797 1200 b 854 1289 797 1263 822 1289 z "},"Æ":{"ha":972,"x_min":0,"x_max":0,"o":"m 863 686 b 1101 828 979 625 1101 735 b 849 1039 1101 942 990 1039 b 813 1036 836 1039 824 1038 b 813 1039 813 1038 813 1038 b 803 1063 813 1049 807 1056 b 797 1068 800 1064 799 1065 b 758 1081 788 1075 774 1081 b 610 993 718 1083 667 1050 b 39 901 422 985 175 1061 b 82 699 -36 811 15 688 b 522 897 168 861 363 883 b 190 464 421 774 306 610 b 58 479 146 471 100 475 b 43 381 25 483 -28 381 b 121 379 65 381 93 381 b -149 144 28 271 -64 181 b -346 115 -208 117 -297 104 b -187 -122 -404 -40 -297 -115 b 311 369 3 -135 165 106 b 422 367 321 368 371 368 b 374 268 404 339 388 306 b 653 -122 297 63 425 -122 b 1039 269 903 -122 1007 151 l 1017 279 b 769 44 1017 279 932 44 b 564 242 654 44 564 113 b 797 467 564 350 671 494 l 807 490 b 904 922 646 642 789 953 b 863 686 971 906 950 729 z m 486 438 b 350 442 426 439 356 442 b 581 849 428 589 504 738 b 668 510 508 672 582 568 b 486 438 610 506 544 486 z "},"Ç":{"ha":665,"x_min":0,"x_max":0,"o":"m 472 599 b 772 718 542 561 708 564 b 511 1031 814 821 778 1031 b 221 -82 85 1031 -228 71 b 725 279 603 -211 725 279 b 703 289 725 279 714 285 b 447 72 679 231 613 72 b 238 332 251 72 238 217 b 546 931 238 603 396 931 b 472 599 693 931 579 681 z m 311 -58 l 282 -197 b 394 -249 282 -197 404 -201 b 200 -247 383 -306 224 -262 b 251 -349 188 -292 206 -335 b 436 -250 314 -367 415 -347 b 335 -142 457 -146 335 -142 l 353 -60 l 311 -58 z "},"È":{"ha":619,"x_min":0,"x_max":0,"o":"m 511 686 b 750 828 628 625 750 735 b 497 1039 750 942 639 1039 b 239 872 374 1039 288 978 b 317 510 151 682 226 571 b 22 268 215 503 89 450 b 301 -122 -54 63 74 -122 b 688 269 551 -122 656 151 l 665 279 b 418 44 665 279 581 44 b 213 242 303 44 213 113 b 446 467 213 350 319 494 l 456 490 b 553 922 294 642 438 953 b 511 686 619 906 599 729 z m 551 1121 l 619 1121 l 576 1288 l 460 1288 l 551 1121 z "},"É":{"ha":621,"x_min":0,"x_max":0,"o":"m 511 686 b 750 828 628 625 750 735 b 497 1039 750 942 639 1039 b 239 872 374 1039 288 978 b 317 510 151 682 226 571 b 22 268 215 503 89 450 b 301 -122 -54 63 74 -122 b 688 269 551 -122 656 151 l 665 279 b 418 44 665 279 581 44 b 213 242 303 44 213 113 b 446 467 213 350 319 494 l 456 490 b 553 922 294 642 438 953 b 511 686 619 906 599 729 z m 668 1121 l 815 1286 l 692 1286 l 590 1121 z "},"Ê":{"ha":624,"x_min":0,"x_max":0,"o":"m 511 686 b 750 828 628 625 750 735 b 497 1039 750 942 639 1039 b 239 872 374 1039 288 978 b 317 510 151 682 226 571 b 22 268 215 503 89 450 b 301 -122 -54 63 74 -122 b 688 269 551 -122 656 151 l 665 279 b 418 44 665 279 581 44 b 213 242 303 44 213 113 b 446 467 213 350 319 494 l 456 490 b 553 922 294 642 438 953 b 511 686 619 906 599 729 z m 775 1122 l 693 1285 l 692 1285 l 618 1285 l 617 1285 l 476 1122 l 546 1122 l 656 1225 l 717 1122 l 775 1122 z "},"Ë":{"ha":621,"x_min":0,"x_max":0,"o":"m 511 686 b 750 828 628 625 750 735 b 497 1039 750 942 639 1039 b 239 872 374 1039 288 978 b 317 510 151 682 226 571 b 22 268 215 503 89 450 b 301 -122 -54 63 74 -122 b 688 269 551 -122 656 151 l 665 279 b 418 44 665 279 581 44 b 213 242 303 44 213 113 b 446 467 213 350 319 494 l 456 490 b 553 922 294 642 438 953 b 511 686 619 906 599 729 z m 744 1194 b 672 1267 744 1233 713 1267 b 600 1194 632 1267 600 1233 b 672 1121 600 1154 632 1121 b 744 1194 713 1121 744 1154 z m 546 1193 b 474 1265 546 1233 514 1265 b 401 1193 433 1265 401 1233 b 474 1119 401 1153 433 1119 b 546 1193 514 1119 546 1153 z "},"Ì":{"ha":397,"x_min":0,"x_max":0,"o":"m 564 960 b 565 1013 571 972 575 996 b 515 1039 558 1029 536 1039 b 485 1029 508 1039 492 1036 b 446 963 472 1019 457 994 b -78 701 308 924 -21 935 b 51 521 -104 590 -19 521 b 414 876 51 714 276 840 b 3 92 324 633 175 196 b -97 63 -28 74 -62 63 b 63 -124 -97 -46 -42 -124 b 390 404 217 -124 317 133 b 418 504 400 436 410 469 b 521 910 457 663 490 813 b 564 960 536 922 554 939 z m 510 1122 l 578 1122 l 535 1288 l 419 1288 l 510 1122 z "},"Í":{"ha":396,"x_min":0,"x_max":0,"o":"m 564 960 b 565 1013 571 972 575 996 b 515 1039 558 1029 536 1039 b 485 1029 508 1039 492 1036 b 446 963 472 1019 457 994 b -78 701 308 924 -21 935 b 51 521 -104 590 -19 521 b 414 876 51 714 276 840 b 3 92 324 633 175 196 b -97 63 -28 74 -62 63 b 63 -124 -97 -46 -42 -124 b 390 404 217 -124 317 133 b 418 504 400 436 410 469 b 521 910 457 663 490 813 b 564 960 536 922 554 939 z m 513 1121 l 661 1286 l 536 1286 l 436 1121 z "},"Î":{"ha":397,"x_min":0,"x_max":0,"o":"m 564 960 b 565 1013 571 972 575 996 b 515 1039 558 1029 536 1039 b 485 1029 508 1039 492 1036 b 446 963 472 1019 457 994 b -78 701 308 924 -21 935 b 51 521 -104 590 -19 521 b 414 876 51 714 276 840 b 3 92 324 633 175 196 b -97 63 -28 74 -62 63 b 63 -124 -97 -46 -42 -124 b 390 404 217 -124 317 133 b 418 504 400 436 410 469 b 521 910 457 663 490 813 b 564 960 536 922 554 939 z m 686 1122 l 604 1286 l 603 1286 l 529 1286 l 528 1286 l 388 1122 l 457 1122 l 567 1225 l 628 1122 l 686 1122 z "},"Ï":{"ha":397,"x_min":0,"x_max":0,"o":"m 564 960 b 565 1013 571 972 575 996 b 515 1039 558 1029 536 1039 b 485 1029 508 1039 492 1036 b 446 963 472 1019 457 994 b -78 701 308 924 -21 935 b 51 521 -104 590 -19 521 b 414 876 51 714 276 840 b 3 92 324 633 175 196 b -97 63 -28 74 -62 63 b 63 -124 -97 -46 -42 -124 b 390 404 217 -124 317 133 b 418 504 400 436 410 469 b 521 910 457 663 490 813 b 564 960 536 922 554 939 z m 519 1193 b 447 1265 519 1233 488 1265 b 374 1193 407 1265 374 1233 b 447 1121 374 1153 407 1121 b 519 1193 488 1121 519 1153 z m 718 1193 b 644 1265 718 1233 685 1265 b 572 1193 604 1265 572 1233 b 644 1121 572 1153 604 1121 b 718 1193 685 1121 718 1153 z "},"Ñ":{"ha":867,"x_min":0,"x_max":0,"o":"m 1000 951 b 919 1017 1000 992 971 1036 b 683 526 842 990 744 774 b 553 871 663 656 601 800 b 563 903 556 882 560 893 b 606 953 578 915 596 932 b 607 1006 613 965 617 989 b 557 1032 600 1022 578 1032 b 526 1021 550 1032 533 1029 b 488 956 514 1013 499 988 b -33 694 350 917 22 928 b 94 515 -61 585 24 515 b 456 869 94 708 319 833 b 46 89 365 628 218 192 b -53 58 15 69 -19 58 b 107 -126 -53 -49 1 -126 b 433 399 260 -126 360 129 b 454 474 440 424 447 447 b 510 703 474 542 493 629 b 522 757 514 721 518 739 b 558 176 596 556 606 211 b 628 135 563 147 593 129 b 760 -206 625 -39 661 -176 b 967 -62 875 -240 967 -133 b 1000 951 625 32 896 838 z m 611 1163 b 901 1125 664 1199 793 1125 b 992 1211 971 1125 992 1175 b 715 1246 926 1167 783 1246 b 611 1163 633 1246 611 1185 z "},"Ò":{"ha":671,"x_min":0,"x_max":0,"o":"m 444 1017 b 42 736 182 1063 76 839 b 25 668 33 713 28 690 b -40 581 1 653 -22 626 b 144 -112 -154 303 -111 -57 b 444 1017 664 -224 947 929 z m 572 642 b 272 -10 564 485 465 -10 b 126 411 131 -10 72 176 b 272 433 168 393 218 399 b 206 668 197 501 197 596 b 454 938 222 811 333 960 b 572 642 549 921 581 799 z m 469 1121 l 538 1121 l 493 1288 l 378 1288 l 469 1121 z "},"Ó":{"ha":671,"x_min":0,"x_max":0,"o":"m 444 1017 b 42 736 182 1063 76 839 b 25 668 33 713 28 690 b -40 581 1 653 -22 626 b 144 -112 -154 303 -111 -57 b 444 1017 664 -224 947 929 z m 572 642 b 272 -10 564 485 465 -10 b 126 411 131 -10 72 176 b 272 433 168 393 218 399 b 206 668 197 501 197 596 b 454 938 222 811 333 960 b 572 642 549 921 581 799 z m 481 1121 l 629 1286 l 504 1286 l 404 1121 z "},"Ô":{"ha":671,"x_min":0,"x_max":0,"o":"m 444 1017 b 42 736 182 1063 76 839 b 25 668 33 713 28 690 b -40 581 1 653 -22 626 b 144 -112 -154 303 -111 -57 b 444 1017 664 -224 947 929 z m 572 642 b 272 -10 564 485 465 -10 b 126 411 131 -10 72 176 b 272 433 168 393 218 399 b 206 668 197 501 197 596 b 454 938 222 811 333 960 b 572 642 549 921 581 799 z m 618 1122 l 538 1285 l 535 1285 l 461 1285 l 460 1285 l 319 1122 l 389 1122 l 499 1225 l 560 1122 l 618 1122 z "},"Õ":{"ha":671,"x_min":0,"x_max":0,"o":"m 444 1017 b 42 736 182 1063 76 839 b 25 668 33 713 28 690 b -40 581 1 653 -22 626 b 144 -112 -154 303 -111 -57 b 444 1017 664 -224 947 929 z m 572 642 b 272 -10 564 485 465 -10 b 126 411 131 -10 72 176 b 272 433 168 393 218 399 b 206 668 197 501 197 596 b 454 938 222 811 333 960 b 572 642 549 921 581 799 z m 306 1158 b 596 1122 358 1196 488 1122 b 686 1208 665 1122 686 1172 b 410 1242 621 1163 478 1242 b 306 1158 328 1242 306 1181 z "},"Ö":{"ha":693,"x_min":0,"x_max":0,"o":"m 444 1017 b 42 736 182 1063 76 839 b 25 668 33 713 28 690 b -40 581 1 653 -22 626 b 144 -112 -154 303 -111 -57 b 444 1017 664 -224 947 929 z m 572 642 b 272 -10 564 485 465 -10 b 126 411 131 -10 72 176 b 272 433 168 393 218 399 b 206 668 197 501 197 596 b 454 938 222 811 333 960 b 572 642 549 921 581 799 z m 432 1186 b 360 1260 432 1226 400 1260 b 286 1186 319 1260 286 1226 b 360 1114 286 1146 319 1114 b 432 1186 400 1114 432 1146 z m 615 1186 b 543 1260 615 1226 583 1260 b 471 1186 503 1260 471 1226 b 543 1114 471 1146 503 1114 b 615 1186 583 1114 615 1146 z "},"×":{"ha":394,"x_min":0,"x_max":0,"o":"m 382 532 l 308 532 l 203 404 l 125 532 l 53 532 l 161 353 l 10 172 l 83 172 l 192 303 l 269 172 l 343 172 l 233 353 l 382 532 z "},"Ø":{"ha":828,"x_min":0,"x_max":0,"o":"m 665 981 l 750 1250 l 690 1250 l 689 1250 l 689 1249 l 613 1007 b 556 1022 594 1014 576 1018 b 147 738 289 1068 182 842 b 131 668 139 714 133 690 b 64 579 106 653 82 626 b 251 -124 -51 297 -8 -67 b 256 -125 253 -124 254 -124 l 203 -293 l 263 -293 l 314 -131 b 665 981 758 -143 1001 761 z m 233 408 b 381 431 275 389 326 394 b 313 668 304 499 304 594 b 565 942 331 814 443 964 b 590 935 574 940 582 938 l 297 8 b 233 408 217 68 190 224 z m 685 642 b 381 -19 676 482 576 -19 b 350 -17 369 -19 360 -18 l 639 896 b 685 642 678 843 690 750 z "},"Ù":{"ha":614,"x_min":0,"x_max":0,"o":"m 871 988 b 794 1065 871 988 861 1065 b 436 406 739 1065 611 903 b 436 406 436 406 436 406 b 435 400 436 404 435 401 b 406 314 424 369 414 340 b 165 72 329 101 246 42 b 338 782 43 119 275 519 b 132 1065 378 949 249 1065 b -228 783 -110 1065 -212 860 b -108 593 -243 707 -208 593 b 181 971 -94 776 111 1013 b -67 128 261 921 -33 393 b 131 -118 -78 42 -47 -118 b 371 82 253 -118 335 11 b 544 -260 371 -210 493 -260 b 683 -126 667 -260 683 -126 b 544 136 683 -126 543 -86 b 871 988 547 449 800 942 z m 511 1121 l 579 1121 l 535 1288 l 419 1288 l 511 1121 z "},"Ú":{"ha":618,"x_min":0,"x_max":0,"o":"m 871 988 b 794 1065 871 988 861 1065 b 436 406 739 1065 611 903 b 436 406 436 406 436 406 b 435 400 436 404 435 401 b 406 314 424 369 414 340 b 165 72 329 101 246 42 b 338 782 43 119 275 519 b 132 1065 378 949 249 1065 b -228 783 -110 1065 -212 860 b -108 593 -243 707 -208 593 b 181 971 -94 776 111 1013 b -67 128 261 921 -33 393 b 131 -118 -78 42 -47 -118 b 371 82 253 -118 335 11 b 544 -260 371 -210 493 -260 b 683 -126 667 -260 683 -126 b 544 136 683 -126 543 -86 b 871 988 547 449 800 942 z m 522 1121 l 671 1286 l 546 1286 l 446 1121 z "},"Û":{"ha":614,"x_min":0,"x_max":0,"o":"m 871 988 b 794 1065 871 988 861 1065 b 436 406 739 1065 611 903 b 436 406 436 406 436 406 b 435 400 436 404 435 401 b 406 314 424 369 414 340 b 165 72 329 101 246 42 b 338 782 43 119 275 519 b 132 1065 378 949 249 1065 b -228 783 -110 1065 -212 860 b -108 593 -243 707 -208 593 b 181 971 -94 776 111 1013 b -67 128 261 921 -33 393 b 131 -118 -78 42 -47 -118 b 371 82 253 -118 335 11 b 544 -260 371 -210 493 -260 b 683 -126 667 -260 683 -126 b 544 136 683 -126 543 -86 b 871 988 547 449 800 942 z m 618 1122 l 538 1285 l 535 1285 l 461 1285 l 460 1285 l 319 1122 l 389 1122 l 499 1225 l 560 1122 l 618 1122 z "},"Ü":{"ha":613,"x_min":0,"x_max":0,"o":"m 871 988 b 794 1065 871 988 861 1065 b 436 406 739 1065 611 903 b 436 406 436 406 436 406 b 435 400 436 404 435 401 b 406 314 424 369 414 340 b 165 72 329 101 246 42 b 338 782 43 119 275 519 b 132 1065 378 949 249 1065 b -228 783 -110 1065 -212 860 b -108 593 -243 707 -208 593 b 181 971 -94 776 111 1013 b -67 128 261 921 -33 393 b 131 -118 -78 42 -47 -118 b 371 82 253 -118 335 11 b 544 -260 371 -210 493 -260 b 683 -126 667 -260 683 -126 b 544 136 683 -126 543 -86 b 871 988 547 449 800 942 z m 706 1194 b 633 1267 706 1233 672 1267 b 560 1194 593 1267 560 1233 b 633 1121 560 1154 593 1121 b 706 1194 672 1121 706 1154 z m 507 1193 b 433 1265 507 1233 474 1265 b 361 1193 394 1265 361 1233 b 433 1119 361 1153 394 1119 b 507 1193 474 1119 507 1153 z "},"Ý":{"ha":682,"x_min":0,"x_max":0,"o":"m 907 1100 b 574 550 739 1100 644 850 b 557 494 568 532 563 513 b 299 238 474 269 388 211 b 444 836 150 285 371 557 b 224 1146 500 1046 349 1146 b -160 844 -33 1146 -144 926 b -33 640 -176 764 -140 640 b 275 1046 -18 836 201 1090 b 60 339 363 992 94 624 b 271 78 47 249 81 78 b 490 200 374 78 446 138 b 206 -47 428 -28 326 -60 b 28 53 56 -33 33 38 b 150 -276 -56 53 -131 -250 b 667 350 408 -300 593 -62 b 1011 1000 717 629 869 1000 b 907 1100 1011 1036 975 1100 z m 625 1121 l 547 1121 l 649 1286 l 772 1286 l 625 1121 z "},"ß":{"ha":811,"x_min":0,"x_max":0,"o":"m 629 397 b 801 704 629 457 801 561 b 629 901 801 829 722 886 b 256 560 476 926 343 826 l 44 -96 l 211 -96 l 392 475 b 633 801 468 718 565 801 b 696 721 674 801 696 769 b 518 386 696 607 518 513 b 583 200 518 303 583 278 b 350 138 583 79 429 47 b 400 -3 329 75 350 25 b 735 181 561 -89 735 38 b 629 397 735 310 629 340 z "},"à":{"ha":583,"x_min":0,"x_max":0,"o":"m 344 703 l 404 703 l 367 847 l 265 847 l 344 703 z m 593 229 b 521 138 579 190 551 139 b 507 296 479 136 478 196 b 600 590 532 383 560 464 l 425 590 b 410 543 421 576 415 561 b 268 625 396 585 358 625 b 143 0 53 625 -143 0 b 313 147 213 0 269 69 b 433 0 313 72 338 0 b 619 221 529 0 596 142 l 593 229 z m 225 142 b 349 557 150 142 281 557 b 376 433 407 557 376 433 b 364 388 376 433 368 403 b 225 142 364 388 289 142 z "},"á":{"ha":581,"x_min":0,"x_max":0,"o":"m 593 229 b 521 138 579 190 551 139 b 507 296 479 136 478 196 b 600 590 532 383 560 464 l 425 590 b 410 543 421 576 415 561 b 268 625 396 585 358 625 b 143 0 53 625 -143 0 b 313 147 213 0 269 69 b 433 0 313 72 338 0 b 619 221 529 0 596 142 l 593 229 z m 225 142 b 349 557 150 142 281 557 b 376 433 407 557 376 433 b 364 388 376 433 368 403 b 225 142 364 388 289 142 z m 431 703 l 561 847 l 451 847 l 363 703 z "},"â":{"ha":581,"x_min":0,"x_max":0,"o":"m 593 229 b 521 138 579 190 551 139 b 507 296 479 136 478 196 b 600 590 532 383 560 464 l 425 590 b 410 543 421 576 415 561 b 268 625 396 585 358 625 b 143 0 53 625 -143 0 b 313 147 213 0 269 69 b 433 0 313 72 338 0 b 619 221 529 0 596 142 l 593 229 z m 225 142 b 349 557 150 142 281 557 b 376 433 407 557 376 433 b 364 388 376 433 368 403 b 225 142 364 388 289 142 z m 508 703 l 436 847 l 435 847 l 369 847 l 368 847 l 244 703 l 306 703 l 403 794 l 457 703 l 508 703 z "},"ã":{"ha":583,"x_min":0,"x_max":0,"o":"m 593 229 b 521 138 579 190 551 139 b 507 296 479 136 478 196 b 600 590 532 383 560 464 l 425 590 b 410 543 421 576 415 561 b 268 625 396 585 358 625 b 143 0 53 625 -143 0 b 313 147 213 0 269 69 b 433 0 313 72 338 0 b 619 221 529 0 596 142 l 593 229 z m 225 142 b 349 557 150 142 281 557 b 376 433 407 557 376 433 b 364 388 376 433 368 403 b 225 142 364 388 289 142 z m 213 738 b 468 706 258 771 372 706 b 549 782 531 706 549 750 b 304 813 492 742 364 813 b 213 738 231 813 213 758 z "},"ä":{"ha":582,"x_min":0,"x_max":0,"o":"m 593 229 b 521 138 579 190 551 139 b 507 296 479 136 478 196 b 600 590 532 383 560 464 l 425 590 b 410 543 421 576 415 561 b 268 625 396 585 358 625 b 143 0 53 625 -143 0 b 313 147 213 0 269 69 b 433 0 313 72 338 0 b 619 221 529 0 596 142 l 593 229 z m 225 142 b 349 557 150 142 281 557 b 376 433 407 557 376 433 b 364 388 376 433 368 403 b 225 142 364 388 289 142 z m 361 763 b 300 824 361 796 333 824 b 238 763 265 824 238 796 b 300 700 238 728 265 700 b 361 763 333 700 361 728 z m 529 763 b 467 824 529 796 501 824 b 406 763 433 824 406 796 b 467 700 406 728 433 700 b 529 763 501 700 529 728 z "},"å":{"ha":1281,"x_min":0,"x_max":0,"o":"m 593 229 b 521 138 579 190 551 139 b 507 296 479 136 478 196 b 600 590 532 383 560 464 l 425 590 b 410 543 421 576 415 561 b 268 625 396 585 358 625 b 143 0 53 625 -143 0 b 313 147 213 0 269 69 b 433 0 313 72 338 0 b 619 221 529 0 596 142 l 593 229 z m 225 142 b 349 557 150 142 281 557 b 376 433 407 557 376 433 b 364 388 376 433 368 403 b 225 142 364 388 289 142 z m 408 681 b 489 760 453 681 489 715 b 408 839 489 804 453 839 b 329 760 365 839 329 804 b 408 681 329 715 365 681 z m 408 808 b 458 760 436 808 458 786 b 408 711 458 733 436 711 b 360 760 382 711 360 733 b 408 808 360 786 382 808 z "},"æ":{"ha":1222,"x_min":0,"x_max":0,"o":"m 813 225 b 535 188 794 171 631 60 b 510 283 517 210 510 244 b 560 254 518 268 535 257 b 811 490 697 243 811 367 b 678 622 811 568 742 622 b 429 489 574 622 488 567 b 272 624 428 551 399 624 b 146 -8 54 624 -144 -8 b 340 186 229 -8 296 89 b 550 -8 353 78 418 -8 b 833 219 765 -8 833 219 b 813 225 833 219 825 222 z m 228 135 b 354 554 154 135 285 554 b 372 389 407 554 378 415 b 354 333 365 371 358 353 b 228 135 328 261 275 135 z m 663 538 b 511 307 733 538 647 332 b 663 538 521 414 583 538 z "},"ç":{"ha":799,"x_min":0,"x_max":0,"o":"m 213 -14 b 496 217 426 -14 496 217 b 475 222 496 217 488 218 b 196 182 443 140 272 72 b 339 564 133 274 222 564 b 318 411 408 564 358 435 b 372 379 318 397 344 379 b 483 499 435 379 483 431 b 340 628 483 576 421 628 b 175 -11 -3 628 -135 33 l 156 -96 b 257 -142 156 -96 265 -100 b 85 -140 246 -192 106 -153 b 129 -229 74 -179 89 -217 b 292 -143 185 -246 274 -229 b 203 -47 311 -51 203 -47 l 211 -14 b 213 -14 211 -14 211 -14 z "},"è":{"ha":453,"x_min":0,"x_max":0,"o":"m 336 624 b 208 -3 -17 624 -144 -3 b 490 224 422 -3 490 224 b 469 229 490 224 482 226 b 193 192 451 175 289 65 b 321 539 126 279 207 539 b 163 310 392 539 303 328 b 218 258 163 288 181 261 b 468 493 356 247 468 369 b 336 624 468 569 399 624 z m 297 703 l 357 703 l 319 847 l 218 847 l 297 703 z "},"é":{"ha":453,"x_min":0,"x_max":0,"o":"m 336 624 b 208 -3 -17 624 -144 -3 b 490 224 422 -3 490 224 b 469 229 490 224 482 226 b 193 192 451 175 289 65 b 321 539 126 279 207 539 b 163 310 392 539 303 328 b 218 258 163 288 181 261 b 468 493 356 247 468 369 b 336 624 468 569 399 624 z m 365 703 l 496 847 l 386 847 l 297 703 z "},"ê":{"ha":454,"x_min":0,"x_max":0,"o":"m 336 624 b 208 -3 -17 624 -144 -3 b 490 224 422 -3 490 224 b 469 229 490 224 482 226 b 193 192 451 175 289 65 b 321 539 126 279 207 539 b 163 310 392 539 303 328 b 218 258 163 288 181 261 b 468 493 356 247 468 369 b 336 624 468 569 399 624 z m 468 703 l 396 847 l 394 847 l 328 847 l 326 847 l 203 703 l 264 703 l 361 794 l 415 703 l 468 703 z "},"ë":{"ha":453,"x_min":0,"x_max":0,"o":"m 336 624 b 208 -3 -17 624 -144 -3 b 490 224 422 -3 490 224 b 469 229 490 224 482 226 b 193 192 451 175 289 65 b 321 539 126 279 207 539 b 163 310 392 539 303 328 b 218 258 163 288 181 261 b 468 493 356 247 468 369 b 336 624 468 569 399 624 z m 189 726 b 444 693 235 760 349 693 b 525 771 507 693 525 738 b 281 800 468 729 340 800 b 189 726 207 800 189 746 z "},"ì":{"ha":278,"x_min":0,"x_max":0,"o":"m 121 590 b 29 303 100 528 63 411 b 129 0 -14 171 -28 0 b 315 221 225 0 292 142 l 289 229 b 217 138 278 192 247 139 b 203 296 175 136 174 196 b 296 590 228 383 256 464 l 121 590 z m 215 674 l 275 674 l 238 819 l 136 819 l 215 674 z "},"í":{"ha":278,"x_min":0,"x_max":0,"o":"m 121 590 b 29 303 100 528 63 411 b 129 0 -14 171 -28 0 b 315 221 225 0 292 142 l 289 229 b 217 138 278 192 247 139 b 203 296 175 136 174 196 b 296 590 228 383 256 464 l 121 590 z m 254 675 l 385 821 l 275 821 l 186 675 z "},"î":{"ha":278,"x_min":0,"x_max":0,"o":"m 121 590 b 29 303 100 528 63 411 b 129 0 -14 171 -28 0 b 315 221 225 0 292 142 l 289 229 b 217 138 278 192 247 139 b 203 296 175 136 174 196 b 296 590 228 383 256 464 l 121 590 z m 367 674 l 294 819 l 293 819 l 228 819 l 225 819 l 101 674 l 164 674 l 261 765 l 315 674 l 367 674 z "},"ï":{"ha":278,"x_min":0,"x_max":0,"o":"m 121 590 b 29 303 100 528 63 411 b 129 0 -14 171 -28 0 b 315 221 225 0 292 142 l 289 229 b 217 138 278 192 247 139 b 203 296 175 136 174 196 b 296 590 228 383 256 464 l 121 590 z m 208 738 b 147 800 208 772 181 800 b 85 738 113 800 85 772 b 147 676 85 704 113 676 b 208 738 181 676 208 704 z m 376 738 b 315 800 376 772 349 800 b 253 738 281 800 253 772 b 315 676 253 704 281 676 b 376 738 349 676 376 704 z "},"ò":{"ha":493,"x_min":0,"x_max":0,"o":"m 388 401 b 363 388 379 403 372 399 b 346 350 354 376 349 364 b 357 310 343 335 347 321 b 364 303 358 308 361 306 b 313 185 350 260 333 219 b 238 122 289 143 264 122 b 199 185 213 122 200 143 b 221 328 199 226 206 274 b 278 472 235 382 254 431 b 351 536 301 515 326 536 b 392 472 376 536 389 515 b 388 401 392 450 390 426 z m 464 300 b 517 331 483 307 500 318 b 579 404 544 357 565 381 b 592 422 585 413 589 418 b 576 435 586 426 581 431 l 571 438 b 489 371 550 407 524 385 b 475 368 483 369 479 368 b 479 447 478 393 479 419 b 328 625 479 561 429 619 b 150 564 258 628 199 607 b 42 399 103 519 65 465 b 0 199 17 332 3 265 b 42 54 -1 142 13 93 b 156 -15 69 15 107 -8 b 390 119 253 -24 331 21 b 464 300 425 176 449 236 z m 356 703 l 414 703 l 376 847 l 275 847 l 356 703 z "},"ó":{"ha":490,"x_min":0,"x_max":0,"o":"m 388 401 b 363 388 379 403 372 399 b 346 350 354 376 349 364 b 357 310 343 335 347 321 b 364 303 358 308 361 306 b 313 185 350 260 333 219 b 238 122 289 143 264 122 b 199 185 213 122 200 143 b 221 328 199 226 206 274 b 278 472 235 382 254 431 b 351 536 301 515 326 536 b 392 472 376 536 389 515 b 388 401 392 450 390 426 z m 464 300 b 517 331 483 307 500 318 b 579 404 544 357 565 381 b 592 422 585 413 589 418 b 576 435 586 426 581 431 l 571 438 b 489 371 550 407 524 385 b 475 368 483 369 479 368 b 479 447 478 393 479 419 b 328 625 479 561 429 619 b 150 564 258 628 199 607 b 42 399 103 519 65 465 b 0 199 17 332 3 265 b 42 54 -1 142 13 93 b 156 -15 69 15 107 -8 b 390 119 253 -24 331 21 b 464 300 425 176 449 236 z m 393 703 l 524 847 l 414 847 l 325 703 z "},"ô":{"ha":493,"x_min":0,"x_max":0,"o":"m 388 401 b 363 388 379 403 372 399 b 346 350 354 376 349 364 b 357 310 343 335 347 321 b 364 303 358 308 361 306 b 313 185 350 260 333 219 b 238 122 289 143 264 122 b 199 185 213 122 200 143 b 221 328 199 226 206 274 b 278 472 235 382 254 431 b 351 536 301 515 326 536 b 392 472 376 536 389 515 b 388 401 392 450 390 426 z m 464 300 b 517 331 483 307 500 318 b 579 404 544 357 565 381 b 592 422 585 413 589 418 b 576 435 586 426 581 431 l 571 438 b 489 371 550 407 524 385 b 475 368 483 369 479 368 b 479 447 478 393 479 419 b 328 625 479 561 429 619 b 150 564 258 628 199 607 b 42 399 103 519 65 465 b 0 199 17 332 3 265 b 42 54 -1 142 13 93 b 156 -15 69 15 107 -8 b 390 119 253 -24 331 21 b 464 300 425 176 449 236 z m 490 703 l 418 847 l 417 847 l 350 847 l 349 847 l 225 703 l 286 703 l 383 794 l 438 703 l 490 703 z "},"õ":{"ha":493,"x_min":0,"x_max":0,"o":"m 388 401 b 363 388 379 403 372 399 b 346 350 354 376 349 364 b 357 310 343 335 347 321 b 364 303 358 308 361 306 b 313 185 350 260 333 219 b 238 122 289 143 264 122 b 199 185 213 122 200 143 b 221 328 199 226 206 274 b 278 472 235 382 254 431 b 351 536 301 515 326 536 b 392 472 376 536 389 515 b 388 401 392 450 390 426 z m 464 300 b 517 331 483 307 500 318 b 579 404 544 357 565 381 b 592 422 585 413 589 418 b 576 435 586 426 581 431 l 571 438 b 489 371 550 407 524 385 b 475 368 483 369 479 368 b 479 447 478 393 479 419 b 328 625 479 561 429 619 b 150 564 258 628 199 607 b 42 399 103 519 65 465 b 0 199 17 332 3 265 b 42 54 -1 142 13 93 b 156 -15 69 15 107 -8 b 390 119 253 -24 331 21 b 464 300 425 176 449 236 z m 193 738 b 450 706 240 771 354 706 b 531 782 511 706 531 750 b 285 813 472 742 346 813 b 193 738 213 813 193 758 z "},"ö":{"ha":493,"x_min":0,"x_max":0,"o":"m 388 401 b 363 388 379 403 372 399 b 346 350 354 376 349 364 b 357 310 343 335 347 321 b 364 303 358 308 361 306 b 313 185 350 260 333 219 b 238 122 289 143 264 122 b 199 185 213 122 200 143 b 221 328 199 226 206 274 b 278 472 235 382 254 431 b 351 536 301 515 326 536 b 392 472 376 536 389 515 b 388 401 392 450 390 426 z m 464 300 b 517 331 483 307 500 318 b 579 404 544 357 565 381 b 592 422 585 413 589 418 b 576 435 586 426 581 431 l 571 438 b 489 371 550 407 524 385 b 475 368 483 369 479 368 b 479 447 478 393 479 419 b 328 625 479 561 429 619 b 150 564 258 628 199 607 b 42 399 103 519 65 465 b 0 199 17 332 3 265 b 42 54 -1 142 13 93 b 156 -15 69 15 107 -8 b 390 119 253 -24 331 21 b 464 300 425 176 449 236 z m 331 763 b 268 824 331 796 303 824 b 207 763 235 824 207 796 b 268 700 207 728 235 700 b 331 763 303 700 331 728 z m 499 763 b 436 824 499 796 471 824 b 375 763 403 824 375 796 b 436 700 375 728 403 700 b 499 763 471 700 499 728 z "},"÷":{"ha":688,"x_min":0,"x_max":0,"o":"m 629 439 l 629 533 l 628 533 l 58 533 l 58 439 z m 346 160 b 365 174 349 160 356 164 l 419 233 b 429 254 425 240 429 247 b 421 274 429 260 426 267 l 367 332 b 346 343 358 339 351 343 b 325 333 339 343 332 340 l 269 276 b 260 256 263 269 260 263 b 265 238 260 250 261 244 l 325 169 b 346 160 332 164 338 160 z m 346 631 b 365 643 349 631 356 635 l 419 703 b 429 724 425 711 429 718 b 421 744 429 731 426 736 l 367 803 b 346 813 358 810 351 813 b 325 804 339 813 332 810 l 269 747 b 260 725 263 739 260 732 b 265 708 260 719 261 714 l 325 639 b 346 631 332 633 338 631 z "},"ø":{"ha":494,"x_min":0,"x_max":0,"o":"m 396 607 l 435 729 l 397 729 l 397 728 l 364 619 b 325 625 351 622 339 624 b 1 204 115 638 7 396 b 156 -7 -3 93 63 6 b 165 -8 158 -7 163 -7 l 135 -106 l 171 -106 l 203 -7 b 474 449 363 10 474 233 b 396 607 474 529 447 582 z m 338 536 l 211 139 b 338 536 161 201 253 508 z m 246 129 l 371 526 b 246 129 425 465 336 153 z "},"ù":{"ha":578,"x_min":0,"x_max":0,"o":"m 586 229 b 514 138 575 192 544 139 b 500 296 472 136 471 196 b 593 590 525 383 553 464 l 417 590 b 324 296 397 528 324 296 b 226 143 308 249 269 143 b 213 296 185 143 183 196 b 306 590 239 383 265 464 l 117 590 b 25 304 96 528 58 411 b 139 0 -18 171 -18 0 b 299 124 200 0 258 60 b 425 0 304 54 338 0 b 613 221 522 0 589 142 l 586 229 z m 332 671 l 390 671 l 353 817 l 251 817 l 332 671 z "},"ú":{"ha":578,"x_min":0,"x_max":0,"o":"m 586 229 b 514 138 575 192 544 139 b 500 296 472 136 471 196 b 593 590 525 383 553 464 l 417 590 b 324 296 397 528 324 296 b 226 143 308 249 269 143 b 213 296 185 143 183 196 b 306 590 239 383 265 464 l 117 590 b 25 304 96 528 58 411 b 139 0 -18 171 -18 0 b 299 124 200 0 258 60 b 425 0 304 54 338 0 b 613 221 522 0 589 142 l 586 229 z m 413 671 l 543 815 l 432 815 l 343 671 z "},"û":{"ha":578,"x_min":0,"x_max":0,"o":"m 586 229 b 514 138 575 192 544 139 b 500 296 472 136 471 196 b 593 590 525 383 553 464 l 417 590 b 324 296 397 528 324 296 b 226 143 308 249 269 143 b 213 296 185 143 183 196 b 306 590 239 383 265 464 l 117 590 b 25 304 96 528 58 411 b 139 0 -18 171 -18 0 b 299 124 200 0 258 60 b 425 0 304 54 338 0 b 613 221 522 0 589 142 l 586 229 z m 486 675 l 413 821 l 411 821 l 346 821 l 344 821 l 221 675 l 282 675 l 379 767 l 433 675 l 486 675 z "},"ü":{"ha":578,"x_min":0,"x_max":0,"o":"m 586 229 b 514 138 575 192 544 139 b 500 296 472 136 471 196 b 593 590 525 383 553 464 l 417 590 b 324 296 397 528 324 296 b 226 143 308 249 269 143 b 213 296 185 143 183 196 b 306 590 239 383 265 464 l 117 590 b 25 304 96 528 58 411 b 139 0 -18 171 -18 0 b 299 124 200 0 258 60 b 425 0 304 54 338 0 b 613 221 522 0 589 142 l 586 229 z m 344 740 b 283 803 344 775 317 803 b 222 740 250 803 222 775 b 283 679 222 707 250 679 b 344 740 317 679 344 707 z m 513 740 b 451 803 513 775 485 803 b 389 740 417 803 389 775 b 451 679 389 707 417 679 b 513 740 485 679 513 707 z "},"ý":{"ha":518,"x_min":0,"x_max":0,"o":"m 390 590 b 281 231 390 590 333 401 b 208 139 271 193 239 140 b 194 297 165 138 164 197 b 288 592 219 385 246 467 l 111 592 b 25 304 92 531 57 413 b 119 0 7 242 -54 0 b 238 90 167 0 214 44 b 203 -19 226 54 210 -1 b 65 -150 169 -124 132 -150 b -12 -58 -3 -150 -12 -99 b -94 -132 -58 -46 -94 -93 b 75 -278 -94 -224 -25 -278 b 379 -35 203 -278 324 -208 b 578 590 413 74 578 590 l 390 590 z m 378 672 l 508 818 l 399 818 l 310 672 z "},"ÿ":{"ha":517,"x_min":0,"x_max":0,"o":"m 390 590 b 281 231 390 590 333 401 b 208 139 271 193 239 140 b 194 297 165 138 164 197 b 288 592 219 385 246 467 l 111 592 b 25 304 92 531 57 413 b 119 0 7 242 -54 0 b 238 90 167 0 214 44 b 203 -19 226 54 210 -1 b 65 -150 169 -124 132 -150 b -12 -58 -3 -150 -12 -99 b -94 -132 -58 -46 -94 -93 b 75 -278 -94 -224 -25 -278 b 379 -35 203 -278 324 -208 b 578 590 413 74 578 590 l 390 590 z m 344 735 b 283 797 344 769 317 797 b 221 735 249 797 221 769 b 283 674 221 701 249 674 b 344 735 317 674 344 701 z m 513 735 b 450 797 513 769 485 797 b 389 735 417 797 389 769 b 450 674 389 701 417 674 b 513 735 485 674 513 701 z "},"ı":{"ha":278,"x_min":0,"x_max":0,"o":"m 121 590 b 29 303 100 528 63 411 b 129 0 -14 171 -28 0 b 315 221 225 0 292 142 l 289 229 b 217 138 278 192 247 139 b 203 296 175 136 174 196 b 296 590 228 383 256 464 l 121 590 z "},"–":{"ha":515,"x_min":0,"x_max":0,"o":"m 507 390 l 461 390 l 57 390 l 42 314 l 490 314 z "},"—":{"ha":646,"x_min":0,"x_max":0,"o":"m 635 390 l 593 390 l 46 390 l 29 314 l 619 314 z "},"‘":{"ha":235,"x_min":0,"x_max":0,"o":"m 108 665 b 204 757 156 665 196 704 b 136 843 213 806 188 844 b 133 843 136 843 135 843 b 171 926 146 875 160 908 b 140 940 178 939 151 958 b 44 772 125 915 50 799 b 44 772 44 772 44 772 b 40 754 43 767 42 760 b 108 665 33 704 58 664 z "},"’":{"ha":235,"x_min":0,"x_max":0,"o":"m 138 947 b 40 857 89 947 49 910 b 106 769 31 808 56 769 b 108 769 107 769 108 769 b 71 688 96 738 81 704 b 101 672 63 674 89 654 b 199 839 117 697 193 813 b 199 839 199 839 199 839 b 203 857 200 844 203 851 b 138 947 213 906 186 947 z "},"‚":{"ha":171,"x_min":0,"x_max":0,"o":"m 100 107 b 17 32 58 107 25 75 b 74 -43 10 -11 31 -43 b 76 -43 74 -43 75 -43 b 43 -112 65 -71 53 -99 b 69 -125 36 -124 60 -140 b 151 15 82 -104 147 -7 b 151 15 151 15 151 15 b 156 32 154 21 156 26 b 100 107 164 72 142 107 z "},"“":{"ha":435,"x_min":0,"x_max":0,"o":"m 108 665 b 204 757 156 665 196 704 b 136 843 213 806 188 844 b 133 843 136 843 135 843 b 171 926 146 875 160 908 b 140 940 178 939 151 958 b 44 772 125 915 50 799 b 44 772 44 772 44 772 b 40 754 43 767 42 760 b 108 665 33 704 58 664 z m 304 665 b 400 757 353 665 392 704 b 333 843 408 806 383 844 b 331 843 332 843 331 843 b 367 926 343 875 357 908 b 336 940 375 939 347 958 b 242 772 322 915 247 799 b 242 772 242 772 242 772 b 238 754 239 767 238 760 b 304 665 229 704 256 664 z "},"”":{"ha":418,"x_min":0,"x_max":0,"o":"m 138 947 b 40 857 89 947 49 910 b 106 769 31 808 56 769 b 108 769 107 769 108 769 b 71 688 96 738 81 704 b 101 672 63 674 89 654 b 199 839 117 697 193 813 b 199 839 199 839 199 839 b 203 857 200 844 203 851 b 138 947 213 906 186 947 z m 326 954 b 229 864 278 954 238 915 b 294 775 221 814 244 775 b 299 775 296 775 297 775 b 260 693 285 743 271 711 b 290 679 251 681 279 661 b 388 846 306 703 382 819 b 388 846 388 846 388 846 b 393 864 390 851 392 857 b 326 954 401 913 376 954 z "},"„":{"ha":335,"x_min":0,"x_max":0,"o":"m 100 107 b 17 32 58 107 25 75 b 74 -43 10 -11 31 -43 b 76 -43 74 -43 75 -43 b 43 -112 65 -71 53 -99 b 69 -125 36 -124 60 -140 b 151 15 82 -104 147 -7 b 151 15 151 15 151 15 b 156 32 154 21 156 26 b 100 107 164 72 142 107 z m 258 107 b 175 32 217 107 183 75 b 231 -43 168 -11 189 -43 b 233 -43 232 -43 233 -43 b 201 -112 222 -71 210 -99 b 226 -125 194 -124 217 -140 b 310 15 240 -104 304 -7 b 310 15 310 15 310 15 b 314 32 311 21 313 26 b 258 107 321 72 300 107 z "},"†":{"ha":582,"x_min":0,"x_max":0,"o":"m 543 829 l 339 829 l 385 1067 l 310 1067 l 310 1065 l 265 829 l 65 829 l 43 722 l 244 722 l 99 -25 l 174 -25 l 318 722 l 521 722 l 543 829 z "},"•":{"ha":694,"x_min":0,"x_max":0,"o":"m 347 286 b 489 344 401 286 449 306 b 549 488 528 385 549 432 b 489 628 549 542 528 589 b 347 688 450 668 403 688 b 206 629 292 688 244 668 b 146 488 167 590 146 543 b 204 344 146 432 165 383 b 347 286 243 306 290 286 z "},"…":{"ha":1426,"x_min":0,"x_max":0,"o":"m 550 -107 b 532 -100 543 -107 538 -104 l 506 -74 b 504 -71 506 -72 506 -72 b 492 47 479 -40 475 4 b 585 139 507 88 540 119 b 574 147 581 142 576 144 l 565 156 b 500 118 544 132 524 119 b 492 118 497 118 494 118 b 479 118 488 118 483 118 b 485 113 481 117 483 115 b 492 93 490 107 493 100 b 386 4 486 51 440 4 b 353 10 374 4 363 6 b 325 28 342 14 333 19 l 325 26 l 299 54 b 267 151 279 74 268 107 b 235 94 257 129 246 110 b 149 35 210 58 181 38 b 139 35 146 35 142 35 b 78 58 115 35 94 43 b 51 85 69 68 61 76 b 24 163 33 103 25 131 b 46 186 24 175 33 185 b 79 199 57 188 69 192 b 158 310 104 215 131 251 b 153 317 156 313 154 314 b 150 324 151 319 151 321 b 143 321 147 322 146 322 b 138 321 140 321 139 321 b 79 346 115 321 94 331 l 53 372 b 47 379 51 374 49 376 b 32 453 31 399 26 425 b 117 553 43 496 71 529 b 236 593 154 574 200 583 b 274 601 250 596 263 599 b 293 632 279 615 286 625 b 324 642 304 640 317 642 b 360 628 331 642 349 640 l 388 601 b 393 593 389 599 392 596 b 396 585 394 592 394 589 b 475 668 425 635 450 661 b 493 671 481 671 488 671 b 526 658 506 671 518 667 l 553 631 b 554 629 554 631 554 629 b 568 583 565 618 569 601 b 557 567 567 576 564 571 b 488 464 542 556 514 518 b 526 476 500 471 514 475 b 538 478 531 476 535 478 b 588 464 558 478 575 472 b 597 467 592 465 594 467 l 619 468 b 613 492 615 475 613 483 b 739 597 611 531 644 590 b 756 599 744 597 750 599 b 874 581 792 599 831 589 l 875 581 b 928 569 892 576 910 572 b 932 583 931 578 932 582 b 950 601 933 592 940 600 l 1035 621 b 1040 621 1036 621 1038 621 b 1057 614 1046 621 1051 618 l 1081 590 b 1086 590 1082 590 1085 590 b 1094 589 1089 590 1092 590 b 1107 581 1099 588 1103 585 l 1133 554 b 1146 525 1139 549 1146 539 b 1146 521 1146 524 1146 522 b 1175 510 1157 519 1167 515 b 1185 513 1178 513 1181 513 l 1265 519 b 1283 513 1272 519 1279 517 l 1310 486 b 1311 483 1310 485 1311 485 b 1315 463 1317 478 1318 469 b 1303 425 1311 449 1307 436 l 1303 422 b 1282 356 1294 399 1288 376 b 1292 349 1285 354 1289 351 l 1318 322 b 1321 319 1319 321 1319 321 b 1325 296 1325 313 1326 304 b 1331 290 1326 294 1329 293 l 1357 264 b 1386 200 1369 251 1386 231 b 1353 88 1386 157 1375 119 b 1144 -8 1313 32 1243 -1 b 1000 -18 1099 -12 1049 -15 l 999 -18 b 724 -42 903 -24 804 -29 b 569 -96 635 -54 583 -72 b 551 -107 565 -101 558 -106 l 550 -107 z m 883 182 b 881 178 883 181 882 179 b 889 178 883 178 886 178 l 883 182 z m 1018 190 b 1011 183 1015 189 1013 186 b 1025 183 1015 183 1019 183 b 1024 185 1024 185 1024 185 l 1018 190 z m 1151 201 b 1139 188 1147 197 1143 192 b 1165 189 1147 189 1157 189 b 1161 193 1164 190 1163 192 l 1151 201 z m 213 436 b 172 383 197 422 182 404 b 186 386 178 386 183 386 l 188 386 b 192 386 189 386 190 386 b 213 436 199 401 206 418 z m 876 461 b 878 444 879 456 879 450 b 876 401 875 429 875 415 b 894 460 882 419 888 439 b 876 461 888 460 882 460 z m 382 333 b 401 335 392 333 397 333 b 406 360 411 338 414 360 b 389 360 403 360 397 360 b 518 613 418 472 478 585 b 482 646 521 633 508 654 b 326 360 438 633 369 499 b 276 361 308 360 296 361 b 281 378 278 367 279 371 b 326 561 297 449 313 517 b 344 588 332 565 340 575 b 346 608 349 599 347 607 b 310 614 342 618 318 621 b 292 583 304 608 297 597 b 56 447 229 560 82 553 b 115 371 44 397 82 368 b 278 543 114 458 217 522 b 210 361 260 493 236 425 b 186 363 197 361 189 361 b 182 324 172 363 164 321 b 193 325 185 324 188 325 b 93 179 163 260 129 203 b 49 163 79 169 64 164 b 121 85 49 114 74 81 b 267 328 189 90 233 206 b 318 329 285 328 299 328 b 318 328 318 328 318 328 b 335 58 282 200 275 79 b 442 122 388 38 438 88 b 382 333 371 146 363 236 z m 549 240 b 604 178 550 206 561 175 b 654 211 624 179 640 193 b 704 167 663 189 681 171 b 854 274 790 151 847 203 b 829 475 863 344 813 406 b 735 442 814 500 744 494 b 735 414 732 433 732 425 b 685 308 718 375 701 340 b 651 251 669 300 656 278 b 650 244 650 249 650 247 b 644 243 647 244 646 243 b 638 314 625 240 624 268 b 679 449 649 354 661 390 l 600 443 b 593 421 599 436 596 429 b 529 453 586 439 569 456 b 472 168 431 444 343 157 b 549 240 504 171 529 203 z m 706 313 b 740 388 719 340 732 364 b 767 269 751 351 769 310 b 714 215 764 243 743 207 b 714 310 683 224 699 292 b 706 313 711 311 708 313 z m 565 425 b 578 371 592 428 578 371 b 572 350 578 371 574 357 b 510 235 572 350 539 236 b 565 425 475 232 535 422 z m 1276 328 b 1263 332 1278 333 1265 336 b 1260 325 1263 332 1260 326 b 1231 289 1253 308 1243 290 b 1224 360 1211 286 1211 314 b 1267 496 1235 400 1249 436 l 1186 489 b 1181 467 1185 483 1182 476 b 1115 499 1174 486 1157 501 b 994 297 1054 494 997 381 b 967 268 988 283 978 269 b 961 339 949 267 947 293 b 1010 500 963 347 989 431 b 1011 500 1011 500 1011 500 b 1096 550 1083 506 1096 538 b 1088 567 1096 563 1088 567 b 1028 538 1088 567 1076 542 b 1022 538 1026 538 1024 538 b 1040 597 1032 571 1039 594 l 956 578 b 944 542 956 578 951 563 b 742 574 872 553 797 578 b 654 469 624 564 624 468 b 735 511 654 469 661 506 b 932 503 801 517 875 508 b 881 336 913 436 885 347 b 928 203 863 275 856 197 b 996 268 957 206 981 236 b 1060 214 1001 233 1021 211 b 1136 286 1090 217 1117 249 b 1192 224 1136 251 1147 219 b 1265 300 1225 226 1250 265 b 1304 236 1276 281 1303 264 b 1183 165 1304 175 1251 169 b 660 135 1083 161 817 156 b 524 -57 513 115 481 -4 b 1117 42 572 24 879 22 b 1338 226 1332 58 1338 193 b 1276 328 1338 281 1264 294 z m 1165 417 b 1160 396 1165 417 1161 403 b 1096 281 1160 396 1125 282 b 1153 471 1063 278 1121 468 b 1165 417 1179 474 1165 417 z "},"‹":{"ha":496,"x_min":0,"x_max":0,"o":"m 399 151 b 132 358 386 161 132 358 b 456 542 132 358 432 528 b 447 569 478 556 464 578 b 42 378 438 565 49 381 b 38 353 31 372 28 358 b 381 125 43 349 367 133 b 399 151 392 118 411 142 z "},"›":{"ha":488,"x_min":0,"x_max":0,"o":"m 86 543 b 353 338 99 533 353 338 b 29 154 353 338 53 168 b 38 125 7 140 21 118 b 443 318 47 131 436 315 b 447 343 454 324 457 336 b 104 571 442 347 117 563 b 86 543 93 578 74 553 z "},"⁄":{"ha":232,"x_min":0,"x_max":0,"o":"m -161 -19 l 475 971 l 406 971 l -232 -19 z "},"∕":{"ha":232,"x_min":0,"x_max":0,"o":"m -161 -19 l 475 971 l 406 971 l -232 -19 z "},"€":{"ha":675,"x_min":0,"x_max":0,"o":"m 656 619 b 453 763 646 690 588 763 b 108 410 300 763 167 594 l -11 410 l -17 376 l 99 376 b 86 325 94 360 90 343 l -25 325 l -32 292 l 82 292 b 239 -62 60 133 101 -15 b 575 110 424 -125 526 10 b 551 131 575 121 560 135 b 406 53 521 89 475 53 b 250 244 261 53 250 160 b 253 292 250 260 251 276 l 342 292 l 349 325 l 257 325 b 265 376 258 343 263 360 l 357 376 l 363 410 l 274 410 b 479 688 314 558 397 688 b 507 549 546 688 540 617 b 656 619 536 503 668 517 z "},"−":{"ha":467,"x_min":0,"x_max":0,"o":"m 431 386 l 68 386 l 54 317 l 417 317 z "},"Œ":{"ha":1111,"x_min":0,"x_max":0,"o":"m 1001 683 b 1233 821 1114 624 1233 731 b 988 1026 1233 932 1125 1026 b 738 864 868 1026 785 967 b 733 854 736 861 735 857 b 531 1004 692 932 625 988 b 140 732 276 1049 174 832 b 124 665 132 708 126 688 b 60 581 100 651 78 625 b 239 -92 -50 311 -8 -37 b 554 10 360 -117 467 -74 b 797 -101 604 -57 689 -101 b 1172 279 1040 -101 1142 164 l 1151 289 b 911 61 1151 289 1068 61 b 711 249 800 61 713 126 b 757 383 714 283 735 349 b 938 471 799 443 865 486 l 947 493 b 1042 913 792 640 931 942 b 1001 683 1107 896 1086 725 z m 654 640 b 622 429 653 593 642 515 b 526 278 585 394 551 346 b 508 118 506 222 501 168 b 364 8 469 53 421 8 b 222 417 226 8 169 189 b 364 438 263 399 311 404 b 299 665 290 504 290 596 b 540 928 315 804 422 949 b 654 640 632 911 663 793 z "},"œ":{"ha":804,"x_min":0,"x_max":0,"o":"m 817 240 b 549 204 799 188 642 81 b 525 296 532 225 525 258 b 572 268 533 282 549 269 b 815 496 706 257 815 376 b 688 622 815 571 749 622 b 460 511 593 622 515 576 b 318 624 444 582 397 619 b 146 565 251 626 193 607 b 40 404 100 522 64 469 b 0 210 17 340 3 275 b 40 71 -1 156 13 108 b 151 3 68 32 104 10 b 379 133 246 -6 321 38 b 564 15 407 64 467 15 b 838 235 771 15 838 235 b 817 240 838 235 829 238 z m 304 197 b 231 136 281 157 257 136 b 193 197 207 136 194 157 b 215 336 193 238 200 283 b 269 476 228 389 247 436 b 342 538 293 518 317 538 b 381 476 365 538 378 518 b 376 407 381 454 379 432 b 354 311 374 390 361 332 b 304 197 339 269 324 231 z m 672 540 b 526 319 740 540 658 343 b 672 540 536 421 596 540 z "},"Š":{"ha":521,"x_min":0,"x_max":0,"o":"m 415 690 b 636 799 436 628 614 608 b 446 1039 653 931 558 1018 b 43 724 249 1075 60 924 b 357 154 17 424 374 351 b 225 39 350 76 303 39 b 43 350 47 39 19 261 b 22 -94 -117 414 -256 57 b 496 267 210 -197 513 -40 b 236 771 485 468 222 625 b 460 953 249 917 379 996 b 415 690 531 915 472 744 z m 318 1274 l 399 1110 l 401 1110 l 475 1110 l 476 1110 l 617 1274 l 547 1274 l 438 1171 l 376 1274 l 318 1274 z "},"š":{"ha":426,"x_min":0,"x_max":0,"o":"m 346 624 b 138 564 313 681 161 679 b 138 504 133 546 133 526 b 28 276 101 419 65 344 b -47 156 -7 260 -35 214 b 72 -43 -67 76 -11 -22 b 401 168 260 -90 385 13 b 346 624 419 326 310 471 z m 208 176 b 92 64 204 117 157 40 b 92 274 25 89 58 236 b 74 282 86 278 79 281 b 151 443 106 340 131 393 b 208 176 175 361 215 264 z m 190 857 l 263 713 l 264 713 l 331 713 l 332 713 l 456 857 l 394 857 l 297 765 l 243 857 l 190 857 z "},"Ÿ":{"ha":697,"x_min":0,"x_max":0,"o":"m 907 1100 b 574 550 739 1100 644 850 b 557 494 568 532 563 513 b 299 238 474 269 388 211 b 444 836 150 285 371 557 b 224 1146 500 1046 349 1146 b -160 844 -33 1146 -144 926 b -33 640 -176 764 -140 640 b 275 1046 -18 836 201 1090 b 60 339 363 992 94 624 b 271 78 47 249 81 78 b 490 200 374 78 446 138 b 206 -47 428 -28 326 -60 b 28 53 56 -33 33 38 b 150 -276 -56 53 -131 -250 b 667 350 408 -300 593 -62 b 1011 1000 717 629 869 1000 b 907 1100 1011 1036 975 1100 z m 617 1250 b 544 1322 617 1290 585 1322 b 472 1250 504 1322 472 1290 b 544 1178 472 1210 504 1178 b 617 1250 585 1178 617 1210 z m 815 1250 b 743 1322 815 1290 783 1322 b 669 1250 703 1322 669 1290 b 743 1178 669 1210 703 1178 b 815 1250 783 1178 815 1210 z "},"ž":{"ha":556,"x_min":0,"x_max":0,"o":"m 636 214 l 592 231 b 461 82 564 153 515 107 b 308 243 439 188 347 225 b 589 465 326 256 544 428 b 533 621 601 476 560 629 b 93 644 468 600 161 592 b 114 457 67 619 56 508 b -62 136 85 374 -21 136 b -12 104 -72 107 -35 88 b 154 436 26 156 142 406 b 465 478 204 424 392 451 b 161 215 383 394 238 275 b 160 199 156 211 153 203 b 283 46 190 183 272 140 b -26 -121 158 51 -26 19 b 157 -256 -26 -193 13 -256 b 468 33 392 -256 476 -76 b 636 214 538 63 600 114 z m 97 -190 b 28 -119 57 -190 28 -160 b 282 -3 28 -42 174 10 b 97 -190 269 -101 194 -190 z m 249 857 l 321 713 l 322 713 l 389 713 l 390 713 l 514 857 l 453 857 l 354 765 l 301 857 l 249 857 z "},"":{"ha":535,"x_min":0,"x_max":0,"o":"m 408 624 b 290 563 363 624 319 596 l 319 651 b 472 1042 467 664 657 1000 b 175 747 304 1069 228 906 l -65 0 l 111 0 l 138 83 b 238 -6 149 35 176 -6 b 408 624 508 -6 674 624 z m 475 963 b 342 718 514 956 463 782 l 349 739 b 475 963 361 775 432 969 z m 215 121 b 192 253 149 121 192 253 l 238 394 b 343 543 254 443 296 543 b 215 121 425 543 300 121 z "},"":{"ha":583,"x_min":0,"x_max":0,"o":"m 663 781 b 544 1051 708 925 664 1039 b 447 650 361 1071 326 768 b 413 542 436 615 424 578 b 269 625 399 583 361 625 b 143 0 53 625 -143 0 b 314 147 214 0 271 68 b 435 0 314 72 339 0 b 622 221 531 0 597 142 l 594 229 b 522 138 583 193 553 139 b 508 296 481 136 479 196 b 663 781 531 372 615 632 z m 379 432 b 365 388 375 417 369 401 b 225 142 365 388 290 142 b 350 557 151 142 282 557 b 379 432 408 557 379 432 z m 482 967 b 490 790 535 967 515 872 b 469 722 485 771 476 749 b 482 967 415 813 438 967 z "},"":{"ha":557,"x_min":0,"x_max":0,"o":"m 426 589 b 413 542 426 589 421 571 b 269 625 397 583 360 625 b 143 -1 53 625 -143 -1 b 271 79 192 -1 235 32 b 236 -31 257 36 238 -26 b 183 -53 215 -36 197 -46 b 101 -400 35 -137 -76 -376 b 415 -35 296 -425 374 -162 b 614 589 450 72 614 589 l 426 589 z m 89 -317 b 213 -99 44 -307 108 -165 b 89 -317 174 -201 119 -324 z m 379 432 b 363 378 374 415 368 397 b 225 140 349 333 283 140 b 350 557 151 140 282 557 b 379 432 408 557 379 432 z "},"":{"ha":576,"x_min":0,"x_max":0,"o":"m 586 224 b 517 132 567 167 542 132 b 479 219 471 132 465 171 b 549 450 493 267 549 449 b 444 625 575 544 551 625 b 271 499 375 625 310 558 l 307 614 l 319 650 b 471 1040 465 664 656 1000 b 172 744 303 1068 226 904 l -65 0 l 111 0 l 225 357 b 343 510 251 431 311 510 b 361 454 357 510 371 489 b 294 226 356 433 326 335 b 394 -25 276 165 221 -25 b 613 215 499 -25 589 136 l 586 224 z m 474 961 b 340 715 513 954 461 781 l 347 736 b 474 961 358 774 431 968 z "},"":{"ha":250,"x_min":0,"x_max":0,"o":"m 117 590 b 103 543 117 590 113 572 b -37 79 81 467 -18 143 b -72 -31 -51 36 -71 -26 b -125 -51 -94 -36 -112 -44 b -208 -400 -274 -137 -385 -376 b 107 -33 -12 -425 64 -161 b 304 590 142 74 304 590 l 117 590 z m -219 -317 b -96 -97 -264 -307 -200 -165 b -219 -317 -135 -201 -189 -324 z m 343 739 b 247 835 343 792 300 835 b 151 739 193 835 151 792 b 247 643 151 686 193 643 b 343 739 300 643 343 686 z "},"":{"ha":535,"x_min":0,"x_max":0,"o":"m 549 222 b 458 143 549 222 532 160 b 300 261 386 126 318 172 b 408 624 553 263 649 624 b 279 528 360 624 306 572 l 318 651 b 469 1040 464 665 654 1000 b 172 746 301 1069 225 906 l -65 0 l 110 0 l 201 285 b 335 -6 188 183 192 -6 b 571 214 521 -6 571 214 l 549 222 z m 346 738 b 472 961 358 775 429 968 b 339 717 511 956 460 782 l 346 738 z m 217 332 l 240 406 b 349 533 271 478 317 539 b 217 332 401 524 354 336 z "},"":{"ha":276,"x_min":0,"x_max":0,"o":"m 315 649 b 468 1039 461 664 653 997 b 171 744 300 1067 224 904 b 29 303 171 744 47 358 b 128 0 -14 171 -28 0 b 315 219 224 0 292 140 l 288 229 b 215 138 276 192 247 139 b 201 294 174 136 172 196 b 315 649 217 344 311 639 z m 340 733 b 471 960 351 771 428 967 b 333 713 508 953 454 778 l 340 733 z "},"":{"ha":515,"x_min":0,"x_max":0,"o":"m 393 590 b 379 543 393 590 389 572 b 281 215 365 493 317 335 b 213 136 267 179 239 138 b 197 294 169 135 168 194 b 292 590 224 382 250 464 l 115 590 b 24 301 96 528 53 396 b 124 -1 6 240 -50 -1 b 240 86 169 -1 217 40 b 239 79 239 83 239 81 b 204 -31 225 36 206 -26 b 151 -53 182 -36 164 -46 b 68 -400 3 -137 -108 -378 b 383 -35 264 -425 340 -162 b 582 590 418 74 582 590 l 393 590 z m 56 -317 b 179 -99 13 -308 75 -165 b 56 -317 142 -201 86 -324 z "},"":{"ha":550,"x_min":0,"x_max":0,"o":"m 529 138 b 508 296 482 138 479 196 b 601 590 533 383 561 464 l 426 590 b 411 544 422 578 417 561 b 269 625 397 585 360 625 b 143 0 53 625 -143 0 b 314 147 214 0 271 68 b 424 0 314 72 346 0 b 529 138 493 0 529 94 z m 225 142 b 350 557 151 142 282 557 b 378 433 408 557 378 433 b 365 388 374 418 369 403 b 225 142 365 388 290 142 z "},"":{"ha":450,"x_min":0,"x_max":0,"o":"m 338 629 b 210 -7 -15 629 -143 -7 b 411 172 378 -7 436 128 b 303 133 386 151 336 132 b 194 188 261 133 221 149 b 335 567 132 278 221 567 b 315 415 406 567 356 438 b 368 383 315 401 340 383 b 479 501 432 383 479 433 b 338 629 479 578 417 629 z "},"":{"ha":564,"x_min":0,"x_max":0,"o":"m 542 138 b 507 294 494 138 478 196 b 678 833 532 382 638 708 l 503 833 b 411 539 492 799 450 667 b 269 624 397 581 361 624 b 143 0 53 624 -142 0 b 314 147 213 0 271 68 b 422 0 314 65 335 0 b 542 138 507 0 542 103 z m 225 140 b 349 556 151 140 281 556 b 378 431 407 556 378 431 b 364 386 374 415 368 400 b 225 140 364 386 290 140 z "},"":{"ha":469,"x_min":0,"x_max":0,"o":"m 224 263 b 476 500 363 251 476 375 b 343 632 476 578 407 632 b 214 -1 -15 632 -144 -1 b 397 174 379 -1 415 135 b 199 194 338 143 256 119 b 174 290 181 218 174 253 b 224 263 182 276 199 264 z m 328 546 b 175 317 399 546 313 340 b 328 546 185 422 249 546 z "},"":{"ha":261,"x_min":0,"x_max":0,"o":"m 315 804 b 115 572 221 804 168 738 b 65 413 107 543 88 483 b 31 415 44 414 31 415 b 28 344 7 415 1 340 b 44 347 31 346 36 346 b -8 182 26 292 8 235 b -192 -161 -44 69 -112 -161 b -26 -229 -192 -236 -87 -271 b 106 -24 33 -189 76 -108 b 221 357 106 -24 168 185 b 257 358 238 357 250 358 b 260 400 290 358 285 399 b 235 401 257 400 247 401 b 283 558 256 471 274 529 b 401 697 315 657 343 697 b 315 804 414 740 388 804 z "},"":{"ha":546,"x_min":0,"x_max":0,"o":"m 426 590 b 411 543 426 590 421 572 b 269 626 397 586 360 626 b 143 0 53 626 -144 0 b 271 81 192 0 235 33 b 239 -18 257 38 246 3 b 47 -140 206 -125 140 -178 b 131 -276 28 -176 33 -257 b 415 -33 235 -297 360 -207 b 614 590 449 75 614 590 l 426 590 z m 225 142 b 350 558 151 142 282 558 b 378 433 408 558 378 433 b 361 379 374 417 368 399 b 225 142 347 336 283 142 z "},"":{"ha":569,"x_min":0,"x_max":0,"o":"m 517 94 b 479 221 456 94 458 143 b 549 450 492 268 549 449 b 443 625 574 546 551 625 b 269 500 375 625 310 560 l 385 860 l 208 860 l -65 0 l 111 0 l 225 357 b 343 511 250 431 310 511 b 361 456 357 511 369 490 b 293 226 356 433 326 335 b 379 -25 275 165 214 -25 b 517 94 483 -25 517 65 z "},"":{"ha":256,"x_min":0,"x_max":0,"o":"m 110 590 b 19 304 90 528 53 411 b 90 0 -24 171 -46 0 b 207 138 178 0 207 101 b 193 296 165 136 164 196 b 286 590 218 383 246 464 l 110 590 z m 328 739 b 232 835 328 792 285 835 b 136 739 179 835 136 792 b 232 643 136 686 179 643 b 328 739 285 643 328 686 z "},"":{"ha":236,"x_min":0,"x_max":0,"o":"m 306 590 l 117 590 b -69 -21 117 590 -35 88 b -208 -151 -103 -125 -140 -151 b -242 -146 -222 -151 -233 -150 b -144 -279 -279 -204 -243 -279 b 106 -35 -49 -279 51 -210 b 306 590 140 72 306 590 z m 346 742 b 250 838 346 794 303 838 b 154 742 197 838 154 794 b 250 646 154 689 197 646 b 346 742 303 646 346 689 z "},"":{"ha":528,"x_min":0,"x_max":0,"o":"m 411 626 b 281 531 363 626 307 575 l 386 860 l 208 860 l -65 0 l 111 0 l 203 285 b 338 -6 189 185 193 -6 b 461 143 435 -6 475 129 b 303 261 389 128 321 174 b 411 626 557 263 651 626 z m 229 332 l 253 407 b 361 535 285 479 331 540 b 229 332 415 524 367 338 z "},"":{"ha":281,"x_min":0,"x_max":0,"o":"m 208 860 b 28 301 189 799 63 410 b 111 0 -14 171 -24 0 b 222 138 185 0 222 81 b 201 294 181 135 172 196 b 383 860 226 382 343 735 l 208 860 z "},"":{"ha":835,"x_min":0,"x_max":0,"o":"m 803 94 b 774 219 754 94 760 171 b 843 450 786 268 842 449 b 731 625 865 521 864 625 b 556 488 657 625 597 544 b 436 625 560 547 533 625 b 268 497 368 625 301 556 l 299 590 l 122 590 l -65 0 l 111 0 l 225 358 b 314 497 242 414 281 474 b 360 456 347 522 378 514 b 221 0 354 438 253 108 l 408 0 b 519 357 421 42 501 304 b 636 511 543 429 601 511 b 654 478 650 511 654 500 b 554 88 654 401 554 201 b 664 -25 554 10 606 -25 b 803 94 768 -25 803 57 z "},"":{"ha":542,"x_min":0,"x_max":0,"o":"m 508 107 b 479 219 464 107 465 171 b 549 450 492 267 549 449 b 440 625 581 543 547 625 b 269 496 371 625 308 553 l 297 585 l 121 585 l -65 0 l 111 0 l 225 357 b 342 510 243 417 311 510 b 361 454 356 510 369 493 b 294 226 356 436 326 335 b 382 -25 276 165 222 -25 b 508 107 486 -25 508 63 z "},"":{"ha":460,"x_min":0,"x_max":0,"o":"m 319 625 b 1 211 114 638 7 400 b 153 3 -3 101 61 15 b 467 451 336 -24 467 219 b 319 625 467 563 417 619 z m 231 135 b 343 539 135 135 247 539 b 231 135 440 539 333 135 z "},"":{"ha":469,"x_min":0,"x_max":0,"o":"m 486 228 b 414 138 475 192 444 139 b 400 294 372 135 371 194 b 456 486 417 351 435 421 b 313 635 483 579 396 635 b 190 635 278 635 226 635 b 135 706 194 664 189 706 b 122 596 81 706 71 596 b 42 329 114 550 81 443 b -62 138 22 269 -24 138 b -58 46 -61 107 -60 72 b 99 329 38 125 83 285 b 181 596 133 433 165 536 b 233 596 194 596 213 596 b 263 475 290 596 276 519 b 211 303 246 422 226 350 b 324 0 169 169 167 0 b 513 219 424 0 489 140 l 486 228 z "},"":{"ha":322,"x_min":0,"x_max":0,"o":"m 340 415 b 400 571 417 414 443 507 b 250 631 374 608 319 631 b 61 417 158 631 61 565 b 260 146 61 271 260 221 b 190 96 260 119 232 96 b 61 192 142 96 83 124 b -32 79 -11 192 -32 122 b 146 -47 -32 10 39 -47 b 371 161 310 -47 371 88 b 196 465 371 288 196 369 b 250 533 196 511 219 533 b 340 415 325 533 340 415 z "},"":{"ha":276,"x_min":0,"x_max":0,"o":"m 303 619 l 367 619 l 381 658 l 315 658 b 367 815 335 721 353 776 l 174 764 b 140 658 167 744 156 707 l 68 658 l 54 619 l 128 619 b 28 304 93 511 49 372 b 114 0 -15 172 -22 0 b 219 122 190 0 219 75 b 201 297 176 121 172 197 b 303 619 218 351 263 492 z "},"":{"ha":517,"x_min":0,"x_max":0,"o":"m 501 138 b 479 294 460 136 450 196 b 572 589 506 382 532 463 l 397 589 b 319 329 379 532 349 429 b 199 142 296 257 250 142 b 199 321 165 142 171 228 b 279 589 231 428 260 529 l 97 589 b 26 342 82 540 51 431 b 117 0 -25 157 -8 0 b 286 140 188 0 243 65 b 393 0 288 68 310 0 b 501 138 468 0 501 97 z "},"":{"ha":488,"x_min":0,"x_max":0,"o":"m 464 147 b 329 300 376 147 354 225 b 528 544 451 379 528 451 b 435 631 528 599 467 633 b 300 389 435 560 378 465 b 226 590 275 454 235 569 b 42 589 196 590 75 589 b 138 307 56 542 99 424 b 147 278 142 296 143 290 b -17 68 64 203 -6 125 b 67 -47 -32 -6 4 -42 b 186 182 72 24 118 118 b 350 13 217 89 267 13 b 464 147 432 13 483 94 z "},"":{"ha":506,"x_min":0,"x_max":0,"o":"m 396 590 b 286 231 396 590 339 401 b 214 139 276 193 247 139 b 200 297 172 139 171 197 b 293 590 225 385 251 464 l 117 590 b 26 304 97 528 60 413 b 124 1 -6 200 -39 1 b 243 90 175 1 219 44 b 210 -19 232 54 215 -1 b 147 -128 192 -75 172 -108 b 36 -144 126 -144 61 -160 b 106 -286 0 -204 35 -272 b 385 -33 222 -310 329 -208 b 583 590 418 74 583 590 l 396 590 z "},"":{"ha":1050,"x_min":0,"x_max":0,"o":"m 856 306 b 582 14 832 140 713 6 b 501 300 479 21 450 126 b 592 585 517 353 581 551 b 593 590 592 588 592 589 l 419 590 b 417 581 419 590 418 588 b 404 543 413 569 408 557 b 265 625 390 585 353 625 b 142 0 51 625 -142 0 b 308 149 210 0 267 68 b 656 -207 306 135 274 -207 b 1040 142 871 -207 1040 -32 b 856 306 1040 275 890 314 z m 222 142 b 343 557 149 142 278 557 b 372 432 401 557 372 432 b 358 388 372 432 364 404 b 222 142 358 388 285 142 z "},"":{"ha":871,"x_min":0,"x_max":0,"o":"m 769 539 b 525 314 732 443 636 365 b 408 624 565 469 540 624 b 290 563 364 624 321 596 l 378 835 l 201 835 l -65 0 l 111 0 l 138 83 b 239 -6 149 35 176 -6 b 442 126 318 -6 388 49 b 719 182 531 119 629 131 b 769 539 931 299 858 539 z m 238 394 b 344 543 256 443 297 543 b 314 250 396 543 365 375 b 190 246 269 244 228 243 b 192 253 192 250 192 253 l 238 394 z m 215 121 b 179 192 181 121 176 157 b 267 160 203 182 232 171 b 215 121 249 136 232 121 z "},"":{"ha":642,"x_min":0,"x_max":0,"o":"m 332 625 b 183 -72 -7 625 -168 -1 b 622 181 425 -122 583 60 b 525 415 665 317 593 413 b 194 200 490 233 297 103 b 329 564 119 272 219 564 b 311 418 397 564 349 440 b 361 389 311 406 335 389 b 468 503 422 389 468 438 b 332 625 468 575 408 625 z "},"":{"ha":1064,"x_min":0,"x_max":0,"o":"m 861 307 b 601 15 843 172 740 15 b 508 301 483 15 457 129 b 600 592 524 354 597 583 b 679 838 631 688 661 782 l 503 838 b 426 592 493 807 461 703 b 411 542 422 575 417 558 b 269 626 397 585 361 626 b 143 3 53 626 -143 3 b 314 149 213 3 271 71 b 661 -204 311 136 283 -204 b 1046 124 839 -204 1046 -89 b 861 307 1046 254 961 307 z m 225 143 b 349 558 151 143 281 558 b 378 433 407 558 378 433 b 364 389 374 418 368 403 b 225 143 364 389 289 143 z "},"":{"ha":549,"x_min":0,"x_max":0,"o":"m 193 325 b 243 475 200 378 217 429 b 335 546 269 522 300 546 b 354 508 353 546 360 533 b 317 425 350 485 338 457 b 242 347 296 394 271 368 b 193 325 225 336 210 329 z m 190 286 l 215 275 b 335 278 254 264 294 265 b 438 354 375 292 410 317 b 481 503 467 392 481 442 b 440 594 481 540 468 571 b 342 628 414 617 381 628 b 158 561 274 628 213 606 b 33 396 106 517 64 463 b -14 194 4 331 -12 264 b 33 15 -15 126 0 67 b 192 -83 65 -37 118 -69 b 493 -17 315 -99 415 -76 b 638 175 569 43 618 107 b 642 347 658 246 660 304 b 557 415 622 390 594 413 b 479 251 544 353 518 297 b 347 165 439 207 396 178 b 218 203 300 153 256 165 b 190 286 200 224 190 251 z "},"":{"ha":832,"x_min":0,"x_max":0,"o":"m 742 694 b 233 401 675 540 411 414 b 354 764 283 553 335 704 l 181 764 b 64 411 171 733 118 574 b 32 413 50 413 50 413 b 40 340 15 390 15 342 b -57 43 -3 208 -43 88 b 99 -236 -117 -158 -37 -279 b 229 307 268 -183 253 143 b 703 347 349 275 546 256 b 742 694 929 478 831 694 z m 124 -142 b 114 35 82 -142 86 -62 b 189 267 124 67 154 158 b 124 -142 207 100 182 -142 z "},"":{"ha":907,"x_min":0,"x_max":0,"o":"m 743 481 b 643 125 750 404 724 238 b 403 -18 583 40 497 0 b 497 228 428 32 489 203 b 613 590 551 400 613 590 l 425 590 b 425 589 425 590 425 589 b 411 543 424 583 418 568 b 269 625 397 585 360 625 b 143 1 53 625 -143 1 b 265 75 189 1 231 32 b 218 -33 246 24 229 -17 b 76 -32 169 -33 122 -32 b -182 -208 -35 -32 -165 -71 b -24 -357 -192 -285 -140 -357 b 339 -139 135 -357 244 -293 b 829 44 531 -132 732 -96 b 743 481 982 265 842 481 z m 225 143 b 350 558 151 143 282 558 b 378 433 407 558 378 433 b 361 379 372 417 367 399 b 225 143 347 336 282 143 z m -11 -269 b -79 -211 -40 -269 -79 -251 b 47 -139 -79 -164 -19 -139 b 160 -140 81 -139 119 -140 b -11 -269 108 -219 50 -269 z "},"":{"ha":860,"x_min":0,"x_max":0,"o":"m 726 231 b 558 15 706 118 650 15 b 503 297 447 15 451 125 b 550 450 507 308 550 450 b 444 625 575 546 553 625 b 271 499 376 625 310 560 l 386 860 l 208 860 l -65 0 l 111 0 l 225 357 b 343 511 251 431 311 511 b 361 456 358 511 371 489 b 332 350 358 443 347 403 b 271 83 303 251 279 144 b 267 42 269 69 268 56 b 567 -242 263 -89 347 -242 b 893 67 717 -242 893 -143 b 726 231 893 171 810 231 z "},"":{"ha":707,"x_min":0,"x_max":0,"o":"m 543 306 b 269 14 519 140 400 6 b 188 300 167 21 136 128 b 281 590 204 353 279 589 l 106 590 b 14 300 106 590 43 404 b 343 -207 -25 158 -86 -207 b 728 142 558 -207 728 -32 b 543 306 728 276 578 314 z m 328 739 b 232 835 328 792 285 835 b 136 739 179 835 136 792 b 232 643 136 686 179 643 b 328 739 285 643 328 686 z "},"":{"ha":619,"x_min":0,"x_max":0,"o":"m 439 478 b 336 113 446 399 418 229 b 89 -35 274 26 186 -15 b 186 218 118 26 178 192 b 306 589 243 394 306 589 l 113 589 b 8 246 113 589 60 413 b 8 246 8 246 8 246 b 8 246 8 246 8 246 b -100 -50 -25 135 -78 -10 b -246 -49 -150 -50 -199 -49 b -510 -228 -358 -49 -493 -89 b -347 -389 -519 -307 -467 -389 b 24 -158 -185 -389 -72 -315 b 526 31 221 -150 426 -114 b 439 478 683 256 539 478 z m -312 -260 b -378 -203 -340 -260 -378 -242 b -256 -133 -378 -157 -321 -133 b -146 -135 -222 -133 -186 -135 b -312 -260 -196 -211 -253 -260 z m 343 738 b 246 836 343 792 300 836 b 147 738 192 836 147 792 b 246 640 147 683 192 640 b 343 738 300 640 343 683 z "},"":{"ha":586,"x_min":0,"x_max":0,"o":"m 218 332 l 242 407 b 296 500 258 444 276 475 b 350 535 317 526 335 538 b 369 478 368 529 375 510 b 322 383 365 446 349 414 b 218 332 297 353 263 336 z m 194 261 b 194 214 194 247 194 232 b 218 56 197 165 204 111 b 289 -93 232 -1 256 -51 b 424 -157 321 -136 367 -157 b 519 -125 464 -157 496 -146 b 571 -51 543 -103 560 -78 b 588 14 582 -25 588 -4 b 438 53 529 14 479 26 b 338 146 396 79 363 111 b 292 244 314 182 297 215 b 489 344 378 250 443 283 b 543 526 535 404 553 465 b 411 625 533 588 490 621 b 338 594 386 624 361 614 b 281 529 313 575 294 554 l 386 860 l 208 860 l -65 0 l 111 0 z "},"":{"ha":694,"x_min":0,"x_max":0,"o":"m 551 306 b 292 14 533 171 431 14 b 199 300 174 14 147 128 b 379 860 199 300 363 808 l 203 860 b 24 300 197 842 46 378 b 351 -207 -29 128 -26 -207 b 738 122 531 -207 738 -90 b 551 306 738 253 651 306 z "},"":{"ha":1353,"x_min":0,"x_max":0,"o":"m 1154 286 b 888 -6 1133 174 1044 -6 b 843 450 665 -6 843 449 b 731 624 865 519 864 624 b 556 486 658 624 597 543 b 438 624 560 546 533 624 b 269 496 368 624 301 556 l 299 589 l 122 589 l -65 0 l 111 0 l 225 357 b 314 497 243 414 281 472 b 360 454 349 522 378 514 b 222 0 354 436 254 108 l 408 0 b 519 356 421 42 501 304 b 636 510 543 428 603 510 b 658 476 650 510 658 499 b 610 281 658 439 632 363 b 960 -226 549 60 564 -226 b 1339 121 1117 -226 1339 -87 b 1154 286 1339 226 1236 292 z "},"":{"ha":1050,"x_min":0,"x_max":0,"o":"m 851 288 b 596 -4 831 175 751 -4 b 493 264 474 -4 447 100 b 550 450 514 335 550 449 b 440 625 582 544 549 625 b 269 497 372 625 308 553 l 297 585 l 121 585 l -65 0 l 113 0 l 225 358 b 343 511 244 418 311 511 b 361 456 356 511 371 494 b 304 264 357 439 332 357 b 269 83 286 204 269 136 b 644 -226 269 -22 310 -226 b 1038 122 839 -226 1038 -87 b 851 288 1038 238 944 308 z "},"":{"ha":992,"x_min":0,"x_max":0,"o":"m 858 713 b 478 388 822 546 646 422 b 481 454 481 410 481 432 b 329 633 481 569 429 628 b 0 207 118 647 7 401 b 157 -8 -3 94 63 6 b 451 256 293 -28 401 96 b 981 561 800 256 981 388 b 858 713 981 651 928 710 z m 353 544 b 382 378 396 544 400 467 b 271 440 292 379 271 418 b 300 510 271 463 283 486 b 353 544 317 531 335 544 z m 238 129 b 224 349 186 129 192 240 b 350 265 242 307 285 279 b 238 129 319 190 278 129 z "},"":{"ha":717,"x_min":0,"x_max":0,"o":"m 829 444 b 536 432 743 467 639 457 b 400 625 539 539 499 625 b 286 556 357 625 307 588 l 300 601 l 124 601 l -150 -257 l 26 -257 l 138 89 b 233 -1 143 47 174 -1 b 499 250 351 -1 449 117 b 936 197 643 261 806 254 b 829 444 982 254 954 411 z m 343 553 b 349 368 381 553 375 465 b 204 297 294 346 244 321 l 246 431 b 343 553 267 481 303 553 z m 214 131 b 178 196 182 131 176 163 b 296 221 206 203 246 213 b 214 131 269 168 240 131 z "},"":{"ha":949,"x_min":0,"x_max":0,"o":"m 749 286 b 493 -4 749 256 681 -8 b 400 294 322 -1 371 196 b 456 486 417 351 436 421 b 313 635 483 578 397 635 b 190 635 278 635 226 635 b 136 706 196 664 190 706 b 124 596 82 706 72 596 b 43 329 115 550 82 443 b -61 138 24 269 -22 138 b -57 47 -60 107 -58 74 b 99 329 38 126 85 285 b 182 596 135 433 167 535 b 233 596 196 596 213 596 b 264 475 290 596 278 519 b 213 303 247 422 226 351 b 544 -224 143 64 128 -224 b 933 122 729 -224 933 -115 b 749 286 933 206 871 310 z "},"":{"ha":656,"x_min":0,"x_max":0,"o":"m 693 486 b 404 293 619 372 511 317 b 356 626 383 406 328 514 b 151 568 322 682 174 681 b 150 508 147 550 147 531 b 43 286 115 426 81 353 b -33 147 10 269 -26 226 b 86 -28 -39 74 11 -8 b 408 169 267 -72 388 24 b 669 222 499 167 592 179 b 693 486 781 282 772 428 z m 165 449 b 214 276 181 396 203 335 b 86 288 169 274 106 281 b 165 449 117 344 144 400 z m 221 188 b 106 78 215 129 169 54 b 82 236 57 96 63 179 b 221 194 117 224 164 207 b 221 188 221 192 221 190 z "},"":{"ha":596,"x_min":0,"x_max":0,"o":"m 553 306 b 292 14 535 171 431 14 b 199 300 174 14 147 128 b 299 618 199 300 283 568 l 361 618 l 375 657 l 311 657 b 361 813 331 718 349 774 l 169 761 b 136 657 163 742 151 704 l 64 657 l 50 618 l 124 618 b 24 300 108 571 46 378 b 353 -207 -29 126 -26 -207 b 738 122 531 -207 738 -92 b 553 306 738 253 651 306 z "},"":{"ha":988,"x_min":0,"x_max":0,"o":"m 803 322 b 546 49 782 167 669 40 b 467 308 451 56 422 151 b 469 313 468 310 468 311 b 476 340 472 322 475 331 b 517 468 488 372 503 421 b 557 590 529 504 542 543 l 392 590 l 390 590 b 303 313 374 532 303 313 b 213 169 290 268 253 169 b 199 313 174 169 171 219 b 288 590 224 396 247 471 l 108 590 b 24 321 89 532 56 421 b 131 35 -18 196 -18 35 b 281 151 189 35 243 92 b 615 -160 294 53 317 -160 b 976 168 818 -160 976 6 b 803 322 976 294 836 331 z "},"":{"ha":749,"x_min":0,"x_max":0,"o":"m 782 304 b 517 14 758 140 649 14 b 319 294 407 14 357 189 b 522 546 444 376 522 451 b 426 633 522 600 460 636 b 289 386 426 560 369 465 b 214 592 264 453 222 571 b 25 590 183 592 58 590 b 122 303 39 543 82 421 b 132 272 126 290 128 285 b -35 57 47 196 -24 117 b 50 -61 -50 -18 -14 -56 b 172 175 56 11 103 108 b 583 -211 176 163 256 -211 b 967 140 799 -211 967 -32 b 782 304 967 288 817 314 z "},"":{"ha":689,"x_min":0,"x_max":0,"o":"m 719 482 b 621 128 726 406 701 240 b 382 -15 561 43 475 4 b 475 231 410 44 467 204 b 590 590 531 401 590 590 l 404 590 b 303 257 404 590 353 419 b 303 257 303 257 303 257 b 303 257 303 257 303 257 b 296 232 300 249 297 240 b 224 142 285 196 254 142 b 210 297 182 140 181 199 b 303 590 235 383 261 465 l 113 590 b 26 303 93 528 58 411 b 119 4 8 242 -53 4 b 244 79 174 4 218 38 b 197 -29 229 40 214 4 b 57 -29 150 -31 101 -29 b -200 -203 -53 -29 -183 -68 b -42 -358 -210 -279 -158 -358 b 318 -135 115 -358 224 -287 b 806 47 508 -128 708 -92 b 719 482 957 267 818 482 z m -32 -264 b -99 -207 -61 -264 -99 -246 b 26 -135 -99 -160 -40 -135 b 139 -136 60 -135 99 -136 b -32 -264 88 -214 29 -264 z "},"":{"ha":872,"x_min":0,"x_max":0,"o":"m 700 347 b 533 49 706 265 631 49 b 503 300 475 49 451 128 b 593 586 518 353 582 553 b 594 590 593 588 593 589 l 421 590 b 406 543 421 590 410 558 b 267 625 392 585 354 625 b 142 0 53 625 -142 0 b 308 149 210 0 268 68 b 567 -86 308 24 399 -86 b 861 215 742 -86 861 58 b 700 347 861 317 771 364 z m 224 142 b 344 558 150 142 279 558 b 374 433 403 558 374 433 b 360 388 374 433 365 404 b 224 142 360 388 286 142 z "},"":{"ha":871,"x_min":0,"x_max":0,"o":"m 703 344 b 536 49 707 264 633 49 b 506 299 479 49 454 126 b 676 833 508 308 658 776 l 501 833 b 410 540 492 803 414 554 b 410 539 410 540 410 540 b 268 622 396 582 358 622 b 142 0 53 622 -143 0 b 311 147 211 0 269 68 b 314 150 313 147 313 149 b 313 147 313 149 313 147 b 569 -86 313 22 403 -86 b 863 214 743 -86 863 58 b 703 344 863 314 772 363 z m 224 142 b 347 556 150 142 279 556 b 376 431 406 556 376 431 b 363 386 372 415 367 400 b 224 142 363 386 289 142 z "},"":{"ha":839,"x_min":0,"x_max":0,"o":"m 704 354 b 529 29 704 299 651 26 b 551 450 406 31 526 356 b 447 625 578 546 554 625 b 271 501 379 625 311 561 l 386 860 l 208 860 l -65 0 l 111 0 l 225 356 b 346 511 250 428 315 511 b 364 456 360 511 374 490 b 301 226 358 435 319 310 b 575 -101 263 53 357 -101 b 874 208 722 -101 874 15 b 704 354 874 346 764 368 z "},"":{"ha":568,"x_min":0,"x_max":0,"o":"m 375 349 b 210 54 381 268 307 54 b 179 303 151 54 128 131 b 268 585 194 354 258 553 b 269 590 269 588 269 589 l 97 590 b 82 543 97 590 88 558 b -14 151 67 483 -10 254 b 243 -81 -14 28 75 -81 b 535 218 417 -81 535 63 b 375 349 535 318 446 365 z m 319 740 b 225 835 319 792 278 835 b 129 740 172 835 129 792 b 225 644 129 688 172 644 b 319 740 278 644 319 688 z "},"":{"ha":546,"x_min":0,"x_max":0,"o":"m 401 357 b 231 53 407 274 331 53 b 199 310 171 53 146 132 b 375 860 201 319 356 803 l 194 860 b 115 608 185 829 150 722 b 0 154 93 539 0 264 b 265 -86 0 25 92 -86 b 565 222 443 -86 565 63 b 401 357 565 326 474 375 z "},"":{"ha":1147,"x_min":0,"x_max":0,"o":"m 997 354 b 824 28 997 299 944 26 b 844 450 699 31 819 356 b 740 625 871 544 847 625 b 556 488 675 625 596 547 b 436 625 560 547 533 625 b 268 497 368 625 301 556 l 299 590 l 122 590 l -65 0 l 111 0 l 225 358 b 314 497 242 414 281 472 b 360 454 347 522 378 514 b 221 0 354 438 253 108 l 408 0 b 519 357 421 42 501 304 b 519 358 519 357 519 358 b 639 510 546 431 608 510 b 657 454 656 510 667 489 b 594 226 651 433 614 310 b 869 -101 556 53 651 -101 b 1167 208 1015 -101 1167 15 b 997 354 1167 346 1057 368 z "},"":{"ha":881,"x_min":0,"x_max":0,"o":"m 706 354 b 531 28 706 299 651 26 b 553 450 406 29 526 356 b 447 625 578 544 550 625 b 269 497 367 625 311 554 b 269 497 269 497 269 497 l 297 585 l 121 585 l -65 0 l 113 0 l 225 357 l 225 356 b 346 510 250 428 315 510 b 365 454 363 510 374 489 b 301 226 360 433 321 310 b 576 -101 264 51 358 -101 b 875 208 722 -101 875 14 b 706 354 875 346 764 368 z "},"":{"ha":556,"x_min":0,"x_max":0,"o":"m 392 357 b 229 65 397 278 324 65 b 199 311 172 65 147 142 b 272 547 210 351 250 476 b 288 594 278 563 283 579 b 288 596 288 594 288 596 b 297 622 290 604 294 614 l 358 622 l 372 661 l 308 661 b 358 813 328 721 346 775 l 169 763 b 138 661 164 744 151 707 l 67 661 l 53 622 l 125 622 b 117 596 122 614 119 604 b 101 550 117 596 107 564 b 50 376 94 521 72 451 b 0 163 25 299 0 219 b 261 -67 0 40 97 -67 b 549 229 432 -67 549 75 b 392 357 549 328 461 374 z "},"":{"ha":867,"x_min":0,"x_max":0,"o":"m 696 347 b 531 50 701 267 628 50 b 496 289 474 50 446 125 b 499 296 497 292 497 294 b 511 339 503 311 507 325 b 547 454 521 371 535 413 b 592 590 560 494 575 539 l 415 590 b 415 590 415 590 415 590 b 400 543 415 590 404 558 b 399 535 400 542 399 539 b 321 296 369 444 321 296 b 225 144 308 249 269 144 b 211 296 185 144 182 197 b 306 590 239 385 264 464 l 115 590 b 25 306 96 529 60 411 b 139 1 -18 172 -18 1 b 297 125 200 1 258 61 b 564 -85 300 97 319 -85 b 856 217 738 -85 856 60 b 696 347 856 317 767 364 z "},"":{"ha":586,"x_min":0,"x_max":0,"o":"m 463 47 b 319 294 396 47 344 218 b 522 544 444 375 522 450 b 426 633 522 599 460 635 b 289 385 426 560 369 464 b 214 590 264 453 222 569 b 25 589 183 590 60 589 b 122 301 39 542 83 419 b 133 272 126 289 129 285 b -35 57 49 194 -22 115 b 50 -61 -50 -18 -12 -56 b 172 174 57 11 103 108 b 486 -87 204 78 282 -87 b 783 199 686 -87 783 81 b 624 344 783 329 686 357 b 463 47 624 344 575 47 z "},"":{"ha":544,"x_min":0,"x_max":0,"o":"m 511 710 b 575 1040 865 710 881 1040 b 281 872 451 1040 354 968 b -69 985 157 924 25 985 b -256 772 -226 985 -286 847 b 203 754 -161 826 22 790 b 86 469 169 693 121 583 b -53 39 51 357 -22 131 l -65 0 b -65 0 -65 0 -65 0 l 113 0 b 125 40 113 0 117 15 l 139 83 b 239 -6 150 35 178 -6 b 410 626 510 -6 676 626 b 286 558 368 626 319 596 b 351 726 304 611 326 669 b 511 710 410 717 463 710 z m 346 544 b 217 121 426 544 303 121 b 193 254 150 121 193 254 l 238 396 b 346 544 256 444 297 544 z m 597 950 b 517 807 689 950 704 807 b 411 825 486 807 450 814 b 597 950 460 897 521 950 z "},"":{"ha":585,"x_min":0,"x_max":0,"o":"m 882 1038 b 581 861 754 1038 656 961 b 193 983 439 914 293 983 b 8 771 36 983 -24 844 b 507 746 107 828 304 783 b 415 535 465 671 436 594 b 413 542 414 538 413 539 b 269 626 399 583 361 626 b 143 0 53 626 -143 0 b 314 147 213 0 271 68 b 435 0 314 72 339 0 b 622 221 531 0 597 142 l 594 229 b 522 138 583 193 553 139 b 508 296 481 136 479 196 b 513 308 510 300 511 306 b 563 461 529 365 549 419 b 657 721 583 526 614 628 b 817 708 713 713 767 708 b 882 1038 1131 708 1188 1038 z m 225 142 b 350 558 151 142 282 558 b 379 432 408 558 379 432 b 365 388 374 417 369 401 b 225 142 365 388 290 142 z m 819 804 b 711 819 786 804 750 810 b 899 947 760 893 822 947 b 819 804 1006 947 1007 804 z "},"":{"ha":314,"x_min":0,"x_max":0,"o":"m 568 1024 b 276 858 447 1024 349 953 b -67 969 154 908 26 969 b -249 760 -221 969 -281 833 b 196 742 -156 814 18 776 b 65 411 151 667 97 510 b 35 413 51 413 51 413 b 42 340 17 390 18 342 b -56 42 -1 208 -42 86 b 101 -237 -114 -158 -35 -281 b 224 353 289 -179 250 215 b 274 353 239 353 256 353 b 282 397 308 353 313 394 b 236 401 264 399 249 400 b 349 714 256 460 308 629 b 506 699 406 704 458 699 b 568 1024 854 699 869 1024 z m 125 -143 b 117 35 85 -143 88 -64 b 192 267 126 67 156 158 b 125 -143 208 100 185 -143 z m 507 793 b 403 811 476 793 442 800 b 586 935 451 883 511 935 b 507 793 676 935 692 793 z "},"":{"ha":544,"x_min":0,"x_max":0,"o":"m 826 -100 b 379 -86 757 -165 568 -126 b 490 203 439 26 472 143 b 614 589 504 244 589 511 l 428 589 b 413 542 428 589 422 571 b 271 625 399 583 361 625 b 144 0 54 625 -142 0 b 272 79 193 0 236 33 b 279 89 274 81 276 85 b 226 -56 264 42 247 -8 b 61 -37 167 -46 110 -37 b 1 -368 -222 -37 -267 -368 b 303 -206 133 -368 231 -297 b 642 -312 424 -254 550 -312 b 826 -100 797 -312 857 -175 z m 226 142 b 351 557 153 142 283 557 b 379 432 410 557 379 432 l 379 433 b 364 378 375 415 369 397 b 226 142 349 335 285 142 z m 1 -269 b 60 -135 -106 -269 -112 -135 b 174 -156 93 -135 132 -143 b 1 -269 131 -222 75 -269 z "},"":{"ha":576,"x_min":0,"x_max":0,"o":"m 351 726 b 511 711 410 717 463 711 b 575 1040 865 711 881 1040 b 281 872 451 1040 354 968 b -69 985 157 924 25 985 b -256 772 -226 985 -286 847 b 203 754 -161 828 22 790 b 86 469 169 693 121 583 b -65 0 51 357 -65 0 b -65 0 -65 0 -65 0 l 113 0 l 139 83 b 221 347 147 114 186 235 b 344 511 244 422 313 511 b 363 456 360 511 372 490 b 296 228 357 435 328 336 b 396 -25 278 165 222 -25 b 615 217 500 -25 592 138 l 588 225 b 518 133 569 168 544 133 b 481 221 472 133 467 171 b 551 451 494 268 550 450 b 446 626 576 546 554 626 b 268 499 376 626 307 558 b 286 558 278 529 285 551 b 351 726 304 611 326 671 z m 588 950 b 508 807 681 950 696 807 b 403 826 478 807 442 814 b 588 950 451 899 513 950 z "},"":{"ha":236,"x_min":0,"x_max":0,"o":"m 511 -104 b 61 -90 442 -171 251 -131 b 172 200 121 24 154 142 b 297 590 186 243 272 511 b 108 590 239 590 174 590 b -3 206 90 525 11 247 b -93 -60 -25 138 -53 33 b -260 -42 -154 -50 -211 -42 b -319 -374 -546 -42 -590 -374 b -15 -210 -187 -374 -89 -303 b 325 -318 106 -260 232 -318 b 511 -104 482 -318 543 -181 z m -296 -274 b -237 -137 -404 -274 -411 -137 b -122 -158 -204 -137 -165 -146 b -296 -274 -167 -226 -222 -274 z m 343 742 b 246 838 343 794 300 838 b 150 742 193 838 150 794 b 246 644 150 688 193 644 b 343 742 300 644 343 688 z "},"":{"ha":542,"x_min":0,"x_max":0,"o":"m 353 725 b 511 710 410 717 464 710 b 575 1039 865 710 881 1039 b 281 872 451 1039 356 967 b -69 985 157 922 25 985 b -254 772 -225 985 -286 847 b 203 754 -160 826 24 789 b 108 533 176 704 139 624 l 107 533 b 86 469 100 513 93 490 b -65 0 51 357 -65 0 b -65 0 -65 0 -65 0 l 113 0 l 204 285 b 338 -6 190 183 194 -6 b 575 215 525 -6 575 215 l 553 222 b 463 143 553 222 536 160 b 304 261 390 126 322 172 b 413 625 558 263 653 625 b 282 529 364 625 308 574 l 278 529 b 288 558 282 544 286 554 b 353 725 304 611 326 669 z m 593 949 b 513 806 685 949 700 806 b 407 825 482 806 446 814 b 593 949 456 897 517 949 z m 351 535 b 219 332 406 525 357 338 l 243 407 b 351 535 275 479 321 540 z "},"":{"ha":279,"x_min":0,"x_max":0,"o":"m 571 1039 b 278 871 449 1039 351 965 b -72 983 154 922 22 983 b -257 771 -228 983 -289 846 b 200 753 -162 826 21 789 b 25 288 133 631 38 333 b 129 0 -14 158 -22 0 b 317 219 225 0 293 140 l 289 229 b 217 138 278 192 247 139 b 200 283 176 136 174 192 b 283 558 236 406 278 538 b 349 725 301 610 324 669 b 507 710 406 715 460 710 b 571 1039 861 710 876 1039 z m 510 806 b 404 824 479 806 443 813 b 589 949 453 896 513 949 b 510 806 681 949 696 806 z "},"":{"ha":531,"x_min":0,"x_max":0,"o":"m 678 -93 b 65 -72 597 -167 314 -115 b 136 94 94 -14 118 43 l 136 90 b 233 0 143 47 174 0 b 400 625 504 0 665 625 b 286 557 356 625 306 589 l 300 603 l 124 603 b 0 215 104 539 14 257 b -94 -46 -21 150 -51 49 b -254 -31 -156 -37 -211 -31 b -337 -379 -537 -31 -606 -379 b -6 -189 -192 -379 -85 -296 b 446 -306 140 -237 310 -300 b 678 -93 639 -312 708 -168 z m 343 554 b 214 132 424 554 300 132 b 185 243 164 132 176 206 l 244 431 b 343 554 267 482 303 554 z m -337 -282 b -257 -128 -444 -282 -429 -128 b -146 -144 -226 -128 -187 -133 b -337 -282 -196 -224 -258 -282 z "},"":{"ha":493,"x_min":0,"x_max":0,"o":"m 785 -97 b 339 -83 715 -162 526 -124 b 449 204 397 29 431 146 b 574 590 463 246 549 513 b 386 590 515 590 450 590 b 282 229 369 532 306 306 b 208 139 272 199 239 140 b 194 296 167 136 165 197 b 288 589 219 383 246 464 l 113 589 b 26 303 92 528 58 410 b 121 1 7 240 -53 1 b 239 90 167 1 215 44 b 186 -54 224 44 207 -6 b 22 -36 126 -43 69 -36 b -37 -364 -261 -36 -306 -364 b 263 -201 93 -364 190 -294 b 600 -310 383 -251 508 -310 b 785 -97 756 -310 815 -172 z m -37 -267 b 19 -132 -144 -267 -153 -132 b 135 -153 53 -132 92 -140 b -37 -267 90 -219 35 -267 z "},"":{"ha":3443,"x_min":0,"x_max":0,"o":"m 925 1011 b 161 1049 801 888 378 1049 b -61 908 44 1049 -39 1018 b 38 767 -75 842 -44 767 b 207 890 38 817 69 890 b 318 876 240 890 278 885 b 213 581 290 813 256 701 b 114 585 182 582 150 583 b 114 499 92 586 67 496 b 183 501 138 499 160 500 b -78 90 118 331 33 158 b -178 63 -110 72 -143 63 b -18 -124 -178 -47 -122 -124 b 339 508 178 -124 276 224 b 418 510 367 510 393 510 b 442 567 449 510 469 564 b 353 572 413 568 383 571 b 418 851 379 699 399 806 b 764 796 522 825 640 796 b 925 1011 967 796 954 1011 z m 811 625 b 651 503 747 625 692 567 l 685 608 l 504 608 l 313 0 l 492 0 l 601 344 b 735 515 639 447 703 515 b 753 393 785 515 783 449 b 921 510 771 367 906 388 b 811 625 932 603 853 625 z m 1456 229 b 1382 138 1442 190 1414 139 b 1368 296 1340 136 1339 196 b 1463 590 1394 383 1421 464 l 1286 590 b 1272 543 1282 576 1278 561 b 1131 625 1257 585 1219 625 b 1004 0 914 625 718 0 b 1175 147 1075 0 1132 69 b 1294 0 1175 72 1200 0 b 1482 221 1392 0 1458 142 l 1456 229 z m 1086 142 b 1211 557 1013 142 1143 557 b 1239 433 1268 557 1239 433 b 1225 388 1239 433 1231 403 b 1086 142 1225 388 1151 142 z m 2032 224 b 1963 132 2013 167 1988 132 b 1925 219 1917 132 1911 171 b 1994 449 1939 267 1994 449 b 1886 625 2028 543 1993 625 b 1715 496 1817 625 1754 553 l 1743 585 l 1567 585 l 1382 0 l 1558 0 l 1671 357 b 1788 510 1690 417 1757 510 b 1807 454 1801 510 1815 493 b 1740 226 1801 436 1772 335 b 1839 -25 1722 165 1665 -25 b 2058 215 1943 -25 2035 136 l 2032 224 z m 2374 725 b 2532 710 2431 717 2485 710 b 2596 1039 2886 710 2901 1039 b 2301 872 2474 1039 2376 967 b 1951 985 2178 922 2046 985 b 1767 772 1796 985 1736 847 b 2225 754 1861 826 2044 789 b 2129 533 2197 704 2161 624 b 2108 469 2122 513 2114 490 b 1957 0 2074 357 1957 0 b 1957 0 1957 0 1957 0 l 2135 0 l 2225 285 b 2360 -6 2211 183 2215 -6 b 2597 215 2546 -6 2597 215 l 2575 222 b 2483 143 2575 222 2557 160 b 2325 261 2411 126 2343 172 b 2435 625 2579 263 2675 625 b 2303 529 2385 625 2331 574 l 2300 529 b 2308 558 2304 544 2307 554 b 2374 725 2326 611 2347 669 z m 2614 949 b 2535 806 2706 949 2721 806 b 2429 825 2503 806 2468 814 b 2614 949 2478 897 2538 949 z m 2374 535 b 2240 332 2426 525 2379 338 l 2264 407 b 2374 535 2296 479 2342 540 z m 3285 482 b 3186 128 3292 406 3265 240 b 2946 -15 3125 43 3040 4 b 3040 231 2974 44 3032 204 b 3156 590 3094 401 3156 590 l 2969 590 b 2868 257 2969 590 2918 419 b 2868 257 2868 257 2868 257 b 2868 257 2868 257 2868 257 b 2860 232 2865 249 2863 240 b 2789 142 2849 196 2818 142 b 2774 297 2747 140 2746 199 b 2867 590 2799 383 2826 465 l 2676 590 b 2590 303 2657 528 2624 411 b 2685 4 2574 242 2513 4 b 2808 79 2738 4 2783 38 b 2763 -29 2794 40 2779 4 b 2621 -29 2714 -31 2667 -29 b 2364 -203 2511 -29 2381 -68 b 2522 -358 2356 -279 2407 -358 b 2883 -135 2681 -358 2789 -287 b 3369 47 3074 -128 3274 -92 b 3285 482 3522 267 3382 482 z m 2532 -264 b 2465 -207 2504 -264 2465 -246 b 2590 -135 2465 -160 2524 -135 b 2703 -136 2625 -135 2663 -136 b 2532 -264 2651 -214 2594 -264 z "}}}
